<svg width="56" height="56" viewBox="0 0 56 56" fill="none" xmlns="http://www.w3.org/2000/svg">
<rect x="4" y="4" width="48" height="48" rx="24" fill="#F3EBFE"/>
<path d="M34 18V28" stroke="#7F56D9" stroke-width="2" stroke-linecap="round" stroke-linejoin="round"/>
<path d="M37 20H32.5C31.6716 20 31 20.6716 31 21.5V21.5C31 22.3284 31.6716 23 32.5 23H35.5C36.3284 23 37 23.6716 37 24.5V24.5C37 25.3284 36.3284 26 35.5 26H31" stroke="#7F56D9" stroke-width="2" stroke-linecap="round"/>
<path d="M18 36V31C18 29.8954 18.8954 29 20 29H21C22.1046 29 23 29.8954 23 31V36C23 37.1046 22.1046 38 21 38H20C18.8954 38 18 37.1046 18 36Z" stroke="#7F56D9" stroke-width="2" stroke-linecap="round"/>
<path d="M23 31L26.3862 29.3069C26.784 29.108 27.2368 29.0474 27.6729 29.1346L30.3922 29.6784C31.3271 29.8654 32 30.6862 32 31.6396V33M32 33H29M32 33L35.8501 30.6899C36.4704 30.3178 37.2762 30.5524 37.5997 31.1994V31.1994C37.8388 31.6775 37.7451 32.2549 37.3671 32.6329L34.4282 35.5718C34.149 35.851 33.7934 36.0413 33.4062 36.1188L29.441 36.9118C29.1506 36.9699 28.851 36.9627 28.5637 36.8909L25.2389 36.0597C25.0802 36.0201 24.9173 36 24.7538 36H23" stroke="#7F56D9" stroke-width="2" stroke-linecap="round"/>
<rect x="4" y="4" width="48" height="48" rx="24" stroke="#F9F5FE" stroke-width="8"/>
</svg>
