<svg width="496" height="399" viewBox="0 0 496 399" fill="none" xmlns="http://www.w3.org/2000/svg">
<path d="M494.391 178.614C493.151 180.909 465.585 165.033 459.848 160.444C459.848 160.444 438.422 166.738 416.406 169.808C412.685 170.335 408.933 170.738 405.274 171.017C397.429 171.638 389.956 171.607 383.879 170.459C377.429 169.25 371.786 167.731 366.855 165.684C352.561 159.73 344.22 149.343 338.917 129.405C338.793 128.94 338.669 128.475 338.545 127.978C337.15 122.49 335.755 117.095 334.483 111.637C329.367 89.2805 326.886 65.9315 339.289 32.567C345.739 15.2336 379.166 7.97772 408.499 3.17149C437.833 -1.63474 449.833 -2.16188 467.569 14.5514C485.306 31.2647 486.329 36.474 488.469 60.8772C490.329 81.9936 489.802 111.017 488.003 125.56C487.724 127.823 487.414 129.746 487.073 131.234C484.562 142.18 479.042 143.017 479.259 144.165C479.476 145.312 495.662 176.32 494.391 178.614Z" fill="#D8C5FC"/>
<path d="M386.081 111.979C394.825 125.157 403.538 154.056 405.306 169.591V171.018C397.461 171.638 389.988 171.607 383.91 170.46C377.46 169.25 371.817 167.731 366.887 165.684C366.98 163.173 367.259 155.328 367.166 154.366C367.073 153.219 364.964 151.328 363.011 150.149C361.057 149.002 361.088 137.467 363.011 136.692C363.011 136.692 361.584 134.521 360.003 134.428C358.422 134.366 350.732 133.405 344.685 129.219C343.011 129.622 341.057 129.715 338.949 129.405C338.701 129.374 338.453 129.312 338.204 129.281C328.933 127.514 330.018 121.157 335.538 119.638C330.483 117.777 330.918 113.684 334.515 111.637C334.856 111.451 335.197 111.296 335.569 111.141L335.197 110.459L339.383 91.4823C344.096 89.0327 344.902 86.9242 358.236 90.335C370.05 93.3738 380.592 108.01 382.825 111.296C383.476 109.994 384.375 109.436 386.081 111.979Z" fill="#FFFEF2"/>
<path d="M494.391 178.615C493.151 180.909 465.585 165.033 459.848 160.444C459.848 160.444 438.422 166.738 416.406 169.808L416.561 168.816C419.166 156.351 429.46 135.203 429.46 135.203C429.46 135.203 425.305 127.606 425.305 121.281C425.305 118.304 425.864 116.971 427.817 116.165C426.856 108.754 422.949 94.8001 422.949 94.8001C422.205 93.9008 421.988 92.9396 421.988 92.9396C421.988 92.9396 419.29 97.0947 415.445 95.9474C411.693 94.8311 412.716 90.707 412.747 90.521C412.654 90.614 410.732 92.3505 409.088 91.1411C407.662 90.1179 408.561 85.7148 411.259 82.893C400.22 82.3349 398.949 81.8388 399.166 80.1333C399.414 78.2418 410.205 55.9471 418.267 45.9006C418.267 45.9006 418.267 45.9006 418.298 45.8696C418.329 45.8386 418.329 45.8076 418.391 45.7765C418.484 45.6835 418.577 45.5285 418.763 45.3424C418.825 45.2494 418.887 45.1874 418.98 45.0944C419.011 45.0324 419.073 45.0014 419.135 44.9393C421.677 41.9316 429.647 33.1253 435.848 32.6602C448.871 31.73 458.298 44.4742 460.934 48.5052C460.934 48.5052 467.755 38.7998 473.492 44.5982C480.189 51.358 466.329 61.2805 466.329 61.2805C466.329 61.2805 469.771 74.1488 476.313 92.1954C477.12 94.459 477.957 96.7536 478.732 98.9551C483.042 111.017 486.763 121.901 488.003 125.622C487.724 127.886 487.414 129.808 487.073 131.296C484.562 142.242 479.042 143.079 479.259 144.227C479.476 145.312 495.662 176.32 494.391 178.615Z" fill="#FFFEF2"/>
<path d="M170.668 207.638C166.854 220.817 160.311 232.538 150.357 241.406C131.474 258.243 100.187 264.879 51.5352 251.794C30.9149 271.112 26.1397 268.383 28.6513 264.197C31.8761 258.771 36.8374 244.755 36.8374 244.755C36.3723 244.569 33.2095 241.499 28.8994 235.98C18.0466 222.119 0 193.003 0 156.537C0 105.56 33.4265 79.1106 68.3415 71.3276C116.559 60.5679 156.404 85.5913 167.66 124.444C171.753 138.615 174.482 154.15 174.947 169.499C175.381 182.708 174.109 195.762 170.668 207.638Z" fill="#D8C5FC"/>
<path d="M173.955 199.7C177.769 202.894 175.877 206.304 170.668 207.669C168.932 208.134 166.792 208.351 164.404 208.258C164.001 208.227 163.629 208.227 163.257 208.196C157.893 217.746 149.862 216.444 148.683 217.839C148.249 218.335 147.784 220.165 147.319 222.336C146.451 226.491 145.676 231.948 145.676 231.948C148.187 232.971 149.924 237.219 150.327 241.436C131.443 258.274 100.156 264.909 51.5047 251.824C30.8844 271.142 26.1092 268.413 28.6208 264.227C31.8456 258.801 36.8069 244.785 36.8069 244.785C36.3418 244.599 33.179 241.529 28.8689 236.01C48.7139 193.963 46.1093 159.669 46.1093 159.669C25.7681 160.413 25.9541 141.405 38.7604 143.358C33.458 136.227 39.2565 122.614 53.1171 128.071C53.1171 128.071 47.5356 114.087 60.714 110.056C71.7838 106.676 74.6676 115.761 82.9467 117.56C102.389 121.839 93.7374 111.73 95.815 112.102C109.024 114.552 105.644 124.816 95.6599 129.963C95.4429 130.087 95.1948 130.18 94.9778 130.304C108.032 145.436 123.598 171.265 121.49 172.599C119.257 174.025 99.815 168.475 99.815 168.475L97.1793 223.452C97.1793 223.452 102.234 233.963 105.986 245.095C108.652 232.351 110.327 228.661 114.358 227.204C115.195 226.894 115.939 225.994 116.59 224.63C117.707 222.336 118.637 218.832 119.505 215.111C120.59 210.553 121.645 205.684 122.947 202.428C128.218 189.498 136.373 166.707 159.288 172.227C161.862 169.808 165.335 168.351 169.149 168.351C171.164 168.351 173.118 168.754 174.916 169.498C180.622 171.855 184.839 177.56 185.087 184.227C185.459 191.762 180.653 198.056 173.955 199.7Z" fill="#FFFEF2"/>
<path d="M106.016 246.181C105.954 246.181 105.861 246.181 105.799 246.15C105.209 246.026 104.837 245.468 104.961 244.879C107.535 232.568 109.302 227.886 114.016 226.181C117.054 225.095 119.938 211.452 121.334 204.878C121.551 203.917 121.737 202.987 121.923 202.181C124.062 192.382 129.923 179.793 139.876 173.808C146.078 170.087 153.148 169.312 160.9 171.514C161.489 171.669 161.799 172.289 161.644 172.847C161.489 173.436 160.869 173.746 160.31 173.591C153.148 171.576 146.636 172.258 140.993 175.669C131.628 181.281 126.078 193.281 124.031 202.646C123.845 203.452 123.659 204.382 123.442 205.343C120.961 217.033 118.574 226.832 114.729 228.227C111.225 229.499 109.644 233.002 107.07 245.313C106.977 245.84 106.543 246.181 106.016 246.181Z" fill="#1C2433"/>
<path d="M162.421 202.242C158.296 202.242 155.103 200.785 153.924 198.553C153.459 197.684 152.312 194.584 157.025 191.669C157.521 191.359 158.203 191.514 158.514 192.01C158.824 192.506 158.669 193.188 158.172 193.498C157.18 194.118 154.917 195.762 155.847 197.498C157.149 199.948 163.351 201.405 170.483 198.18C171.041 197.932 171.661 198.18 171.909 198.739C172.157 199.297 171.909 199.917 171.351 200.165C168.188 201.622 165.118 202.242 162.421 202.242Z" fill="#1C2433"/>
<path d="M165.335 209.344C165.025 209.344 164.684 209.344 164.374 209.312C159.63 209.157 156.436 207.514 155.878 204.909C155.444 203.018 156.591 201.095 158.885 199.917C159.413 199.638 160.064 199.855 160.343 200.382C160.622 200.909 160.405 201.561 159.878 201.84C158.513 202.553 157.8 203.545 157.986 204.444C158.265 205.685 160.374 207.018 164.467 207.142C170.513 207.359 174.048 205.437 174.761 203.576C175.382 201.995 174.017 200.413 172.777 199.359C172.312 198.987 172.25 198.274 172.653 197.84C173.025 197.374 173.738 197.312 174.172 197.716C177.583 200.568 177.273 203.111 176.777 204.382C175.599 207.421 171.165 209.344 165.335 209.344Z" fill="#1C2433"/>
<path d="M176.605 198.748C184.191 195.201 187.299 185.824 183.549 177.804C179.798 169.784 170.609 166.159 163.024 169.706C155.438 173.253 152.329 182.63 156.08 190.65C159.83 198.67 169.02 202.295 176.605 198.748Z" fill="#19B28D"/>
<path d="M423.166 64.7843C422.453 64.6603 421.988 63.9781 422.112 63.2959L422.701 60.0401C422.825 59.3269 423.507 58.8618 424.189 58.9858C424.902 59.1099 425.368 59.792 425.244 60.4742L424.654 63.73C424.53 64.4122 423.879 64.9083 423.166 64.7843Z" fill="#1C2433"/>
<path d="M433.77 65.2501C433.056 65.1261 432.591 64.4439 432.715 63.7617L433.304 60.5059C433.429 59.7927 434.111 59.3276 434.793 59.4516C435.506 59.5757 435.971 60.2578 435.847 60.94L435.258 64.1958C435.134 64.878 434.483 65.3742 433.77 65.2501Z" fill="#1C2433"/>
<path d="M76.404 156.537C75.6908 156.599 75.0707 156.072 75.0086 155.359L74.7296 152.072C74.6675 151.359 75.1947 150.738 75.9079 150.676C76.621 150.614 77.2412 151.141 77.3032 151.855L77.5823 155.141C77.6443 155.855 77.1172 156.475 76.404 156.537Z" fill="#1C2433"/>
<path d="M90.7907 154.305C90.0775 154.367 89.4574 153.84 89.3953 153.127L89.1163 149.84C89.0543 149.127 89.5814 148.506 90.2946 148.444C91.0078 148.382 91.6279 148.91 91.6899 149.623L91.969 152.91C92 153.623 91.4729 154.243 90.7907 154.305Z" fill="#1C2433"/>
<path d="M176.993 185.902C177.303 186.801 177.365 187.576 177.179 188.259C176.993 188.941 176.527 189.561 175.752 190.088L176.558 192.414C176.589 192.476 176.589 192.538 176.558 192.6C176.527 192.662 176.465 192.693 176.403 192.724L173.334 193.778C173.272 193.809 173.21 193.809 173.148 193.778C173.086 193.747 173.054 193.685 173.023 193.623L172.31 191.545C171.721 191.731 171.194 191.855 170.698 191.948C170.636 191.948 170.574 191.948 170.512 191.917C170.45 191.886 170.419 191.824 170.388 191.762L169.768 189.22C169.737 189.127 169.768 189.065 169.799 189.003C169.83 188.941 169.892 188.91 169.985 188.91C170.171 188.879 170.388 188.848 170.605 188.817C170.822 188.786 171.07 188.724 171.411 188.662C171.752 188.6 172.031 188.507 172.31 188.414C172.62 188.321 172.837 188.196 173.023 188.041C173.21 187.886 173.303 187.731 173.365 187.576C173.396 187.421 173.427 187.297 173.427 187.173C173.427 187.08 173.427 186.987 173.396 186.894C173.365 186.801 173.303 186.708 173.241 186.646C173.179 186.553 173.054 186.46 172.899 186.336C172.744 186.212 172.527 186.119 172.248 186.057C171.969 185.995 171.628 185.995 171.256 186.026C170.822 186.057 170.388 186.057 169.954 185.964C169.52 185.871 169.085 185.716 168.651 185.499C168.217 185.282 167.845 184.941 167.473 184.538C167.101 184.103 166.822 183.607 166.636 183.049C166.357 182.243 166.326 181.499 166.543 180.786C166.76 180.103 167.225 179.483 167.907 178.925L167.07 176.537C167.039 176.475 167.039 176.413 167.07 176.351C167.101 176.289 167.132 176.227 167.225 176.227L170.295 175.173C170.357 175.142 170.419 175.142 170.512 175.173C170.574 175.204 170.636 175.266 170.636 175.328L171.349 177.406C171.907 177.251 172.465 177.096 173.023 176.972C173.086 176.972 173.148 176.972 173.21 177.003C173.272 177.034 173.303 177.096 173.334 177.158L173.954 179.7C173.954 179.762 173.954 179.824 173.923 179.917C173.892 179.979 173.83 180.01 173.737 180.041C172.806 180.165 172 180.32 171.318 180.569C171.039 180.662 170.791 180.786 170.605 180.941C170.419 181.096 170.326 181.251 170.264 181.406C170.233 181.561 170.202 181.685 170.202 181.809C170.202 181.902 170.202 181.995 170.233 182.088C170.264 182.15 170.295 182.243 170.388 182.336C170.45 182.429 170.574 182.522 170.729 182.646C170.884 182.77 171.101 182.863 171.38 182.925C171.659 182.987 172 182.987 172.372 182.956C172.806 182.925 173.241 182.956 173.675 183.049C174.109 183.142 174.543 183.297 174.977 183.514C175.411 183.731 175.783 184.072 176.155 184.476C176.527 184.848 176.806 185.344 176.993 185.902Z" fill="#FFFEF2"/>
<path d="M173.272 194.273C173.179 194.273 173.055 194.242 172.961 194.211C172.775 194.118 172.651 193.994 172.589 193.808L172.031 192.164C171.597 192.289 171.194 192.382 170.822 192.475C170.636 192.506 170.45 192.475 170.295 192.382C170.14 192.289 170.016 192.165 169.985 191.978V191.947L169.365 189.405C169.303 189.188 169.365 188.971 169.489 188.816C169.613 188.661 169.799 188.537 170.016 188.506C170.202 188.475 170.419 188.444 170.605 188.413C170.822 188.382 171.07 188.32 171.38 188.258C171.69 188.195 171.969 188.102 172.217 188.009C172.465 187.916 172.651 187.823 172.775 187.73C172.93 187.606 172.961 187.513 172.961 187.513C172.992 187.389 172.992 187.296 172.992 187.234C172.992 187.141 172.992 187.11 172.992 187.11C172.992 187.079 172.961 187.048 172.93 186.986C172.899 186.955 172.837 186.893 172.682 186.769C172.62 186.707 172.496 186.645 172.217 186.583C171.969 186.521 171.69 186.521 171.349 186.552C170.884 186.614 170.388 186.583 169.892 186.459C169.427 186.366 168.93 186.18 168.465 185.932C168 185.684 167.535 185.312 167.132 184.847C166.729 184.382 166.419 183.823 166.202 183.203C165.892 182.304 165.861 181.436 166.109 180.661C166.326 179.978 166.76 179.358 167.349 178.8L166.636 176.723C166.574 176.537 166.574 176.35 166.667 176.195C166.76 176.009 166.884 175.885 167.101 175.792L170.171 174.738C170.357 174.676 170.543 174.676 170.729 174.769C170.915 174.862 171.039 174.986 171.101 175.172L171.659 176.816C172.093 176.692 172.496 176.599 172.93 176.505C173.117 176.474 173.272 176.505 173.458 176.599C173.644 176.692 173.768 176.878 173.799 177.064L174.419 179.606C174.45 179.823 174.419 180.009 174.326 180.164C174.202 180.35 174.016 180.475 173.799 180.475C172.93 180.568 172.155 180.754 171.504 180.971C171.256 181.033 171.07 181.126 170.946 181.25C170.791 181.374 170.76 181.436 170.76 181.498C170.729 181.653 170.698 181.746 170.698 181.777C170.698 181.839 170.698 181.87 170.729 181.901C170.729 181.901 170.76 181.963 170.791 182.025C170.822 182.056 170.884 182.118 171.039 182.242C171.101 182.304 171.256 182.366 171.504 182.428C171.752 182.49 172.031 182.49 172.372 182.459C172.837 182.428 173.334 182.459 173.799 182.552C174.295 182.645 174.76 182.831 175.225 183.079C175.69 183.327 176.155 183.699 176.527 184.164C176.93 184.63 177.21 185.188 177.427 185.808C177.768 186.769 177.83 187.668 177.613 188.444C177.427 189.126 176.961 189.777 176.31 190.304L176.993 192.289C177.055 192.475 177.055 192.661 176.962 192.847C176.868 193.033 176.744 193.157 176.558 193.219L173.489 194.273C173.427 194.273 173.334 194.273 173.272 194.273ZM172.31 191.11C172.496 191.11 172.682 191.234 172.744 191.42L173.396 193.281L176.062 192.351L175.318 190.242C175.256 190.056 175.318 189.839 175.473 189.715C176.124 189.25 176.558 188.723 176.713 188.133C176.868 187.544 176.837 186.831 176.558 186.056C176.372 185.529 176.124 185.095 175.814 184.692C175.504 184.32 175.163 184.04 174.791 183.823C174.419 183.606 174.016 183.482 173.613 183.389C173.21 183.296 172.806 183.296 172.434 183.327C172.031 183.358 171.628 183.358 171.318 183.296C170.946 183.234 170.667 183.11 170.481 182.955C170.295 182.8 170.14 182.676 170.047 182.552C169.954 182.428 169.892 182.304 169.83 182.18C169.768 182.056 169.768 181.901 169.768 181.746C169.768 181.591 169.799 181.436 169.861 181.219C169.923 180.971 170.109 180.754 170.357 180.537C170.574 180.35 170.884 180.195 171.225 180.071C171.876 179.854 172.651 179.699 173.489 179.575L172.961 177.436C172.496 177.56 172 177.684 171.535 177.808C171.287 177.87 171.039 177.746 170.977 177.529L170.326 175.637L167.659 176.568L168.434 178.769C168.496 178.955 168.434 179.172 168.279 179.296C167.659 179.761 167.256 180.319 167.07 180.94C166.884 181.529 166.915 182.18 167.163 182.893C167.349 183.42 167.597 183.854 167.907 184.257C168.217 184.63 168.589 184.94 168.961 185.126C169.334 185.312 169.737 185.467 170.14 185.56C170.543 185.653 170.915 185.653 171.287 185.622C171.721 185.591 172.093 185.591 172.434 185.653C172.806 185.715 173.086 185.839 173.303 186.025C173.489 186.18 173.613 186.304 173.706 186.428C173.799 186.552 173.892 186.676 173.923 186.831C173.954 186.955 173.985 187.11 173.985 187.265C173.985 187.42 173.954 187.575 173.892 187.792C173.83 188.04 173.675 188.257 173.427 188.475C173.21 188.661 172.899 188.816 172.558 188.94C172.279 189.033 171.969 189.126 171.628 189.188C171.287 189.25 171.008 189.312 170.791 189.343C170.636 189.374 170.512 189.374 170.388 189.405L170.915 191.544C171.318 191.451 171.783 191.327 172.279 191.172C172.217 191.11 172.279 191.11 172.31 191.11Z" fill="#FFFEF2"/>
<path d="M424.561 84.5672H424.53C403.507 83.699 399.972 83.482 398.608 81.8696C397.987 81.1254 398.08 80.2571 398.142 79.9781C398.422 77.6215 413.522 46.3345 421.864 40.8151C422.36 40.474 423.042 40.629 423.352 41.1251C423.693 41.6213 423.538 42.3035 423.042 42.6135C415.6 47.5128 400.685 77.9005 400.251 80.2571C400.22 80.4432 400.251 80.4742 400.251 80.5052C400.995 81.4044 409.367 81.7765 424.592 82.3967C425.181 82.4277 425.646 82.9238 425.646 83.513C425.615 84.1021 425.15 84.5672 424.561 84.5672Z" fill="#1C2433"/>
<path d="M418.299 45.8697C421.989 50.6759 429.462 50.893 436.469 45.4666C443.477 40.0402 445.71 57.1256 453.276 54.6139C460.842 52.1023 461.679 49.6217 461.679 49.6217C461.679 49.6217 451.291 31.482 435.849 32.5983C428.376 33.1565 418.299 45.8697 418.299 45.8697Z" fill="#1C2433"/>
<path d="M451.787 55.9782C448.407 55.9782 446.019 52.6913 444.066 49.9936C442.546 47.9161 440.996 45.7456 439.414 45.5285C438.732 45.4355 437.988 45.6835 437.12 46.3657C432.996 49.5595 428.5 51.0479 424.438 50.5208C421.554 50.1487 419.135 48.7843 417.43 46.5518C417.12 46.1487 417.12 45.6215 417.43 45.2184C417.864 44.6913 427.88 32.1021 435.756 31.5439C451.725 30.3966 462.174 48.3502 462.608 49.1254C462.763 49.4045 462.794 49.7146 462.701 50.0246C462.546 50.5208 461.306 53.1254 453.616 55.6681C452.965 55.8541 452.376 55.9782 451.787 55.9782ZM439.135 43.3269C439.321 43.3269 439.538 43.3269 439.725 43.3579C442.205 43.699 443.973 46.1176 445.802 48.6913C448.376 52.2262 450.236 54.4898 452.934 53.5906C457.926 51.9161 459.787 50.3347 460.407 49.6215C458.515 46.6448 448.996 32.7532 435.942 33.6835C429.988 34.1176 421.926 43.2339 419.724 45.8386C421.027 47.2029 422.732 48.0711 424.748 48.3192C428.221 48.7533 432.128 47.451 435.818 44.5983C436.903 43.761 438.05 43.3269 439.135 43.3269Z" fill="#1C2433"/>
<path d="M464.467 55.6063C464.343 55.6063 464.219 55.5753 464.095 55.5443C463.537 55.3272 463.258 54.7071 463.444 54.1489C464.901 50.1489 468.622 47.4202 468.778 47.2962C469.274 46.9551 469.956 47.0481 470.297 47.5442C470.638 48.0404 470.545 48.7225 470.049 49.0636C470.018 49.0946 466.7 51.5443 465.46 54.8931C465.305 55.3582 464.902 55.6063 464.467 55.6063Z" fill="#1C2433"/>
<path d="M412.839 81.6218C408.995 84.1025 407.475 89.932 409.15 91.1413C410.824 92.3506 412.808 90.4901 412.808 90.4901C412.808 90.4901 411.661 94.7692 415.506 95.9165C419.351 97.0638 422.049 92.9087 422.049 92.9087C422.049 92.9087 423.134 97.3429 427.94 96.1335C431.475 95.2343 432.499 91.4514 432.499 91.4514C432.499 91.4514 434.545 94.025 438.7 92.7847C442.855 91.5754 443.227 83.3893 433.708 80.5676C426.018 78.304 415.382 79.9474 412.839 81.6218Z" fill="#1C2433"/>
<path d="M426.267 97.4359C425.243 97.4359 424.313 97.1879 423.507 96.6917C422.701 96.1956 422.112 95.5445 421.708 94.9243C420.406 96.2266 418.081 97.839 415.135 96.9708C412.53 96.1956 411.662 94.2111 411.507 92.4437C410.546 92.7537 409.46 92.7537 408.468 92.0096C407.941 91.6064 407.29 90.8002 407.352 89.0948C407.414 86.4901 409.15 82.6762 412.22 80.6917C415.073 78.8622 425.926 77.1258 433.957 79.5134C440.282 81.4048 442.515 85.4359 442.515 88.5987C442.515 91.1413 441.119 93.1878 438.949 93.808C436.096 94.6452 434.081 93.932 432.871 93.1878C432.158 94.5522 430.732 96.5057 428.158 97.1569C427.507 97.3739 426.887 97.4359 426.267 97.4359ZM421.988 91.8545C422.05 91.8545 422.112 91.8545 422.174 91.8545C422.608 91.9165 422.949 92.2576 423.042 92.6607C423.042 92.6607 423.414 94.1181 424.654 94.8313C425.429 95.2964 426.422 95.3584 427.631 95.0793C430.515 94.3352 431.383 91.2033 431.414 91.1723C431.507 90.7692 431.848 90.4902 432.251 90.3971C432.654 90.3041 433.057 90.4592 433.305 90.7692C433.367 90.8312 435.011 92.7227 438.36 91.7615C439.569 91.4204 440.344 90.1801 440.375 88.6297C440.375 86.2421 438.546 83.1413 433.367 81.6219C425.739 79.3583 415.538 81.1878 413.429 82.5521C411.073 84.0715 409.615 87.1103 409.553 89.1878C409.522 89.932 409.708 90.2421 409.77 90.2731C410.67 90.9243 412.034 89.715 412.034 89.715C412.375 89.3739 412.933 89.3429 413.336 89.5909C413.739 89.839 413.956 90.3351 413.832 90.8002C413.739 91.1413 413.057 94.1181 415.786 94.9243C418.825 95.8235 421.057 92.4127 421.088 92.3816C421.305 92.0406 421.646 91.8545 421.988 91.8545Z" fill="#1C2433"/>
<path d="M427.817 117.25C427.29 117.25 426.825 116.847 426.732 116.32C425.802 109.064 421.957 95.2656 421.895 95.1106C421.74 94.5214 422.081 93.9323 422.639 93.7772C423.228 93.6222 423.817 93.9633 423.972 94.5214C424.127 95.0795 427.91 108.63 428.872 116.041C428.934 116.63 428.531 117.188 427.941 117.25C427.91 117.219 427.879 117.25 427.817 117.25Z" fill="#1C2433"/>
<path d="M442.73 136.475C441.645 136.475 440.56 136.444 439.506 136.351C438.916 136.289 438.451 135.762 438.513 135.173C438.575 134.584 439.103 134.118 439.692 134.18C450.172 135.08 462.917 131.266 472.932 124.258C473.428 123.917 474.11 124.041 474.452 124.537C474.793 125.033 474.669 125.715 474.172 126.056C464.746 132.63 452.994 136.475 442.73 136.475Z" fill="#1C2433"/>
<path d="M382.577 112.009C382.236 112.009 381.894 111.854 381.677 111.544C378.887 107.544 368.964 94.2105 357.987 91.4198C346.824 88.567 344.871 89.6833 341.615 91.5128C341.088 91.8229 340.53 92.133 339.91 92.474C339.383 92.7531 338.731 92.5361 338.452 92.0089C338.173 91.4818 338.39 90.8306 338.917 90.5515C339.507 90.2415 340.034 89.9314 340.561 89.6523C344.468 87.4198 347.073 86.3965 358.545 89.3422C370.235 92.35 380.592 106.18 383.507 110.335C383.848 110.831 383.724 111.513 383.228 111.854C383.011 111.947 382.794 112.009 382.577 112.009Z" fill="#1C2433"/>
<path d="M363.01 137.778C362.669 137.778 362.297 137.592 362.111 137.282C361.646 136.599 360.654 135.545 359.94 135.514C359.847 135.514 350.948 134.956 343.847 129.964C343.351 129.623 343.227 128.941 343.599 128.444C343.94 127.948 344.622 127.824 345.119 128.196C350.638 132.072 357.956 133.251 360.064 133.344C362.142 133.437 363.754 135.824 363.94 136.103C364.281 136.599 364.126 137.282 363.63 137.592C363.413 137.716 363.196 137.778 363.01 137.778Z" fill="#1C2433"/>
<path d="M339.008 119.328C357.706 120.847 349.768 131.483 338.171 129.281C327.194 127.173 330.729 118.646 339.008 119.328Z" fill="#FFFEF2"/>
<path d="M341.335 130.677C340.28 130.677 339.133 130.584 337.955 130.335C331.722 129.157 329.862 125.994 330.203 123.452C330.606 120.568 334.017 117.839 339.071 118.242C347.412 118.925 350.141 121.281 350.947 123.173C351.536 124.537 351.288 125.994 350.234 127.266C348.807 129.095 345.583 130.677 341.335 130.677ZM338.11 120.382C334.823 120.382 332.59 122.056 332.373 123.762C332.094 125.746 334.451 127.483 338.358 128.227C343.102 129.126 347.102 127.762 348.559 125.932C349.087 125.281 349.211 124.63 348.963 124.041C348.683 123.359 347.071 121.095 338.916 120.444C338.668 120.382 338.389 120.382 338.11 120.382Z" fill="#1C2433"/>
<path d="M339.382 110.49C358.886 110.428 351.599 121.715 339.382 120.475C327.816 119.297 330.731 110.521 339.382 110.49Z" fill="#FFFEF2"/>
<path d="M341.274 121.653C340.623 121.653 339.971 121.622 339.258 121.56C332.747 120.909 330.545 117.932 330.669 115.359C330.793 112.475 333.894 109.436 339.351 109.405C339.413 109.405 339.475 109.405 339.537 109.405C346.328 109.405 350.669 110.77 352.033 113.343C352.716 114.615 352.592 116.041 351.692 117.374C350.297 119.545 346.483 121.653 341.274 121.653ZM339.382 111.576C335.475 111.576 332.933 113.591 332.84 115.452C332.747 117.436 335.351 118.987 339.475 119.39C344.53 119.886 348.623 118.088 349.925 116.165C350.359 115.514 350.452 114.894 350.142 114.367C349.801 113.715 347.971 111.576 339.568 111.576C339.506 111.576 339.444 111.576 339.382 111.576Z" fill="#1C2433"/>
<path d="M340.255 118.806C348.226 114.289 351.306 104.661 347.136 97.3011C342.965 89.9411 333.122 87.6362 325.151 92.153C317.18 96.6699 314.1 106.298 318.27 113.658C322.441 121.018 332.284 123.323 340.255 118.806Z" fill="#19B28D"/>
<path d="M338.141 106.707C338.482 107.668 338.544 108.505 338.327 109.25C338.11 109.994 337.614 110.645 336.807 111.203L337.676 113.684C337.707 113.746 337.707 113.839 337.676 113.901C337.645 113.963 337.583 114.025 337.521 114.025L334.234 115.172C334.172 115.203 334.079 115.203 334.017 115.172C333.955 115.141 333.893 115.079 333.893 115.017L333.117 112.815C332.497 113.002 331.908 113.157 331.412 113.25C331.35 113.25 331.288 113.25 331.226 113.219C331.164 113.188 331.102 113.126 331.102 113.064L330.451 110.335C330.42 110.242 330.451 110.18 330.482 110.118C330.544 110.056 330.606 110.025 330.699 109.994C330.916 109.963 331.133 109.932 331.35 109.901C331.567 109.87 331.877 109.808 332.218 109.715C332.559 109.653 332.9 109.56 333.179 109.436C333.49 109.343 333.769 109.188 333.955 109.033C334.141 108.877 334.265 108.691 334.296 108.536C334.327 108.381 334.358 108.226 334.358 108.102C334.358 107.978 334.358 107.885 334.327 107.792C334.296 107.699 334.234 107.606 334.172 107.513C334.11 107.42 333.986 107.296 333.831 107.172C333.676 107.048 333.428 106.955 333.117 106.893C332.807 106.831 332.435 106.831 332.032 106.862C331.567 106.924 331.102 106.893 330.637 106.769C330.172 106.676 329.707 106.49 329.241 106.273C328.776 106.025 328.373 105.684 327.97 105.219C327.598 104.753 327.288 104.226 327.071 103.606C326.761 102.738 326.73 101.932 326.978 101.188C327.226 100.443 327.691 99.7922 328.435 99.203L327.536 96.6604C327.505 96.5983 327.505 96.5053 327.536 96.4433C327.567 96.3813 327.629 96.3193 327.691 96.2883L330.978 95.141C331.04 95.11 331.133 95.11 331.195 95.172C331.257 95.203 331.319 95.265 331.35 95.327L332.125 97.5286C332.714 97.3425 333.303 97.1875 333.924 97.0635C333.986 97.0635 334.048 97.0635 334.141 97.0945C334.203 97.1255 334.265 97.1875 334.265 97.2495L334.916 99.9782C334.947 100.04 334.916 100.133 334.885 100.195C334.854 100.257 334.792 100.319 334.699 100.319C333.707 100.443 332.838 100.629 332.094 100.877C331.784 100.97 331.536 101.095 331.35 101.281C331.164 101.436 331.04 101.622 330.978 101.777C330.916 101.932 330.916 102.087 330.916 102.211C330.916 102.335 330.916 102.428 330.947 102.521C330.978 102.614 331.04 102.676 331.102 102.8C331.164 102.893 331.288 103.017 331.474 103.141C331.629 103.265 331.877 103.358 332.187 103.42C332.497 103.482 332.869 103.513 333.272 103.451C333.738 103.42 334.203 103.451 334.668 103.544C335.133 103.637 335.598 103.792 336.063 104.04C336.528 104.288 336.931 104.629 337.335 105.095C337.645 105.56 337.924 106.087 338.141 106.707Z" fill="#FFFEF2"/>
<path d="M334.141 115.638C334.016 115.638 333.923 115.607 333.83 115.576C333.644 115.483 333.52 115.328 333.458 115.141L332.838 113.343C332.373 113.467 331.908 113.591 331.505 113.684C331.319 113.715 331.133 113.684 330.978 113.591C330.823 113.498 330.699 113.343 330.637 113.188V113.157L329.985 110.428C329.923 110.211 329.985 109.994 330.109 109.808C330.234 109.622 330.42 109.529 330.637 109.498C330.854 109.467 331.071 109.436 331.288 109.405C331.505 109.374 331.784 109.312 332.125 109.25C332.466 109.188 332.776 109.095 333.024 109.002C333.303 108.909 333.489 108.816 333.644 108.692C333.799 108.568 333.83 108.475 333.861 108.444C333.892 108.289 333.923 108.196 333.923 108.134C333.923 108.041 333.923 108.01 333.892 107.979C333.892 107.948 333.861 107.886 333.799 107.824C333.768 107.793 333.706 107.7 333.52 107.576C333.458 107.514 333.303 107.452 332.993 107.39C332.714 107.327 332.404 107.328 332.063 107.359C331.567 107.421 331.04 107.39 330.513 107.265C330.016 107.172 329.489 106.986 328.993 106.707C328.497 106.428 328.001 106.056 327.598 105.56C327.164 105.064 326.854 104.475 326.606 103.793C326.265 102.831 326.234 101.901 326.513 101.064C326.761 100.32 327.195 99.6375 327.877 99.0794L327.102 96.8158C327.04 96.6298 327.04 96.4437 327.133 96.2577C327.226 96.0716 327.381 95.9166 327.567 95.8546L330.854 94.7073C331.04 94.6453 331.257 94.6453 331.443 94.7383C331.629 94.8313 331.753 94.9864 331.815 95.1724L332.435 96.9709C332.9 96.8468 333.365 96.7228 333.83 96.6298C334.016 96.5988 334.203 96.6298 334.358 96.7228C334.544 96.8158 334.668 97.0019 334.73 97.1879L335.381 99.9166C335.412 100.134 335.381 100.32 335.288 100.506C335.164 100.692 334.978 100.816 334.761 100.847C333.83 100.971 332.993 101.126 332.28 101.374C332.032 101.467 331.815 101.56 331.691 101.684C331.536 101.808 331.505 101.901 331.474 101.963C331.412 102.118 331.412 102.211 331.412 102.273C331.412 102.335 331.412 102.366 331.443 102.428C331.443 102.459 331.474 102.49 331.536 102.552C331.567 102.583 331.629 102.676 331.815 102.8C331.877 102.862 332.032 102.924 332.342 102.986C332.621 103.048 332.931 103.048 333.272 103.017C333.768 102.986 334.296 103.017 334.792 103.11C335.319 103.203 335.815 103.389 336.311 103.669C336.807 103.948 337.303 104.32 337.706 104.816C338.11 105.312 338.451 105.901 338.668 106.583C339.04 107.607 339.102 108.568 338.854 109.405C338.637 110.149 338.172 110.831 337.427 111.421L338.172 113.591C338.234 113.777 338.234 113.963 338.141 114.149C338.048 114.335 337.892 114.459 337.706 114.521L334.42 115.669C334.296 115.638 334.203 115.638 334.141 115.638ZM333.117 112.32C333.303 112.32 333.489 112.444 333.551 112.63L334.265 114.676L337.179 113.653L336.373 111.359C336.311 111.172 336.373 110.955 336.528 110.831C337.241 110.335 337.706 109.746 337.861 109.126C338.048 108.475 337.986 107.731 337.675 106.862C337.489 106.304 337.21 105.808 336.869 105.405C336.528 105.002 336.156 104.692 335.753 104.475C335.35 104.258 334.916 104.103 334.482 104.01C334.047 103.917 333.613 103.886 333.21 103.917C332.776 103.948 332.373 103.948 332.001 103.855C331.629 103.762 331.319 103.669 331.102 103.483C330.916 103.327 330.761 103.203 330.668 103.048C330.575 102.924 330.482 102.769 330.451 102.645C330.389 102.49 330.389 102.335 330.389 102.18C330.389 102.025 330.42 101.839 330.482 101.653C330.544 101.405 330.73 101.157 330.978 100.94C331.226 100.723 331.536 100.568 331.908 100.475C332.621 100.227 333.458 100.041 334.358 99.9476L333.799 97.591C333.272 97.7151 332.745 97.8391 332.218 97.9941C331.97 98.0561 331.722 97.9321 331.66 97.7151L330.947 95.6685L328.001 96.6918L328.838 99.0794C328.9 99.2654 328.838 99.4825 328.683 99.6065C328.032 100.134 327.598 100.723 327.381 101.374C327.164 102.025 327.195 102.738 327.474 103.514C327.66 104.072 327.939 104.568 328.28 104.971C328.621 105.374 328.993 105.684 329.396 105.901C329.83 106.118 330.234 106.273 330.668 106.366C331.102 106.459 331.505 106.49 331.908 106.428C332.373 106.397 332.776 106.397 333.117 106.459C333.489 106.552 333.799 106.676 334.016 106.831C334.203 106.986 334.358 107.11 334.451 107.234C334.544 107.359 334.637 107.514 334.668 107.638C334.699 107.762 334.73 107.917 334.73 108.072C334.73 108.227 334.699 108.413 334.637 108.63C334.575 108.878 334.389 109.126 334.141 109.343C333.892 109.56 333.582 109.715 333.21 109.839C332.931 109.932 332.559 110.025 332.218 110.118C331.846 110.211 331.567 110.242 331.319 110.304C331.164 110.335 331.009 110.366 330.823 110.366L331.381 112.723C331.846 112.63 332.342 112.475 332.9 112.32C333.024 112.32 333.055 112.32 333.117 112.32ZM334.606 99.9166C334.575 99.9166 334.575 99.9166 334.606 99.9166C334.575 99.9166 334.575 99.9166 334.606 99.9166Z" fill="#FFFEF2"/>
<path d="M352.312 94.7998C343.041 99.544 337.739 104.195 339.847 107.203C342.328 110.738 354.297 105.405 354.297 105.405C354.297 105.405 354.483 118.986 364.933 122.087" fill="#FFFEF2"/>
<path d="M364.933 123.142C364.84 123.142 364.716 123.142 364.623 123.111C355.631 120.444 353.708 110.831 353.305 106.986C349.646 108.475 341.398 111.296 338.948 107.824C338.328 106.924 338.142 105.901 338.421 104.785C339.383 100.878 346.235 96.6918 351.817 93.839C352.344 93.56 352.995 93.777 353.274 94.3042C353.553 94.8313 353.336 95.4825 352.809 95.7615C342.576 100.971 340.84 104.165 340.561 105.312C340.437 105.808 340.499 106.211 340.778 106.583C342.111 108.506 349.398 106.428 353.894 104.413C354.235 104.258 354.607 104.289 354.918 104.475C355.228 104.661 355.414 105.002 355.414 105.374C355.414 105.498 355.724 118.18 365.274 121.033C365.863 121.219 366.173 121.808 366.018 122.397C365.832 122.831 365.398 123.142 364.933 123.142Z" fill="#1C2433"/>
<path d="M405.304 171.731C404.746 171.731 404.281 171.327 404.219 170.769C402.359 154.614 393.459 125.064 385.149 112.598C384.591 111.761 384.219 111.451 384.064 111.358C383.754 111.73 383.351 113.002 383.165 113.653L383.103 113.839C381.025 120.599 375.692 132.692 363.475 137.715C363.134 138.118 362.576 140.227 362.638 143.823C362.7 147.296 363.289 149.002 363.568 149.281C365.242 150.273 368.064 152.444 368.219 154.304C368.312 155.482 367.847 163.637 367.754 165.25C367.723 165.839 367.196 166.304 366.607 166.273C366.017 166.242 365.552 165.715 365.583 165.126C365.8 161.436 366.141 155.296 366.079 154.521C366.017 153.994 364.56 152.382 362.452 151.141C359.94 149.653 360.529 141.25 360.56 141.157C360.87 136.909 361.893 136.04 362.607 135.73C374.049 131.079 379.072 119.606 381.056 113.219L381.118 113.033C381.645 111.327 382.235 109.436 383.785 109.188C385.18 108.971 386.297 110.366 386.979 111.42C396.281 125.467 404.684 155.823 406.39 170.552C406.452 171.141 406.018 171.7 405.429 171.762C405.367 171.731 405.335 171.731 405.304 171.731Z" fill="#1C2433"/>
<path d="M441.242 341.096C441.242 341.096 441.335 346.336 438.421 353.871C434.39 364.321 424.56 379.205 400.622 390.709C368.436 406.181 303.226 395.949 287.257 377.127C282.544 371.577 278.947 366.15 276.435 360.197C273.117 352.383 271.691 343.701 272.156 332.786C272.528 323.886 274.141 313.53 276.962 300.972C277.272 299.607 277.614 298.243 277.955 296.941C287.908 259.855 315.753 240.692 345.769 236.94C352.653 236.072 361.211 236.568 370.42 238.522C391.878 243.111 416.622 255.855 430.824 278.677C437.986 290.181 442.452 304.258 442.452 321.127C451.599 329.468 471.723 332.941 475.01 332.631C478.266 332.352 474.08 343.608 441.242 341.096Z" fill="#D8C5FC"/>
<path d="M457.833 244.29C454.949 248.91 450.329 247.669 450.112 247.607C453.74 250.46 446.949 259.018 440.313 259.111C433.678 259.204 433.46 255.793 433.46 255.793C430.546 258.026 427.29 256.941 425.895 254.119C425.864 257.964 424.499 261.468 422.453 263.855C430.577 262.181 438.453 266.956 437.212 272.569C436.499 275.794 433.926 277.716 430.825 278.615C427.042 279.701 422.484 279.235 419.476 277.685L416.933 313.871C417.057 313.84 417.181 313.778 417.305 313.747C421.739 312.507 424.282 318.678 418.825 320.073C417.956 320.29 417.181 320.259 416.499 320.042L415.941 327.949L438.453 353.778C434.422 364.228 424.592 379.112 400.654 390.616C368.468 406.089 303.258 395.856 287.289 377.034C282.576 371.484 278.979 366.058 276.467 360.104C278.204 351.267 279.785 336.197 279.785 336.197C277.181 336.197 274.39 334.647 272.188 332.724C269.987 330.771 268.374 328.414 268.095 326.771C264.684 326.802 260.002 325.809 257.521 324.786C253.956 323.298 251.754 318.895 256.653 314.584L270.669 304.321C270.545 304.104 270.452 303.856 270.421 303.577C270.049 300.693 273.584 298.088 277.987 296.879C279.196 296.538 280.467 296.321 281.739 296.228L288.653 291.174C305.522 302.367 310.111 324.662 310.328 373.313C328.561 350.151 355.941 322.554 363.01 316.445C360.127 315.732 358.762 311.794 362.979 309.654C363.383 309.437 363.786 309.313 364.158 309.251C365.026 295.018 366.948 262.584 366.545 262.181C366.018 261.654 343.817 255.638 344.344 250.77C344.561 248.879 359.041 242.925 370.452 238.522C372.933 237.561 375.259 236.693 377.274 235.917C377.088 235.607 376.933 235.297 376.809 234.925C375.662 231.545 379.166 229.809 379.166 229.809C379.166 229.809 372.964 226.181 374.98 220.661C377.026 215.142 390.98 215.39 398.887 225.034C398.887 225.034 399.6 221.406 404.685 222.646C409.77 223.886 410.205 232.817 410.205 232.817C410.205 232.817 414.546 230.553 418.856 234.77C418.794 234.615 416.592 229.189 421.243 225.189C426.484 220.692 433.088 226.181 433.088 226.181C433.088 226.181 436.096 218.026 441.864 218.305C455.91 218.925 450.422 235.421 450.422 235.421C457.213 232.786 460.778 239.576 457.833 244.29Z" fill="#FFFEF2"/>
<path d="M267.846 327.949C264.032 327.949 259.194 326.739 257.055 325.871C254.76 324.91 253.117 322.987 252.745 320.817C252.466 319.142 252.776 316.569 255.876 313.84C256.311 313.437 257.024 313.499 257.396 313.933C257.799 314.398 257.737 315.08 257.303 315.452C255.442 317.096 254.605 318.801 254.884 320.445C255.132 321.871 256.28 323.204 257.861 323.855C261.737 325.468 269.117 326.46 270.822 325.251C272.621 323.98 271.101 321.096 271.07 321.065C270.791 320.538 270.977 319.887 271.504 319.576C272.032 319.297 272.683 319.483 272.993 320.011C273.861 321.592 274.791 325.096 272.094 327.018C271.163 327.669 269.613 327.949 267.846 327.949Z" fill="#1C2433"/>
<path d="M286.575 297.065L290.172 286.832C279.505 285.964 263.66 272.847 257.924 267.979C252.187 263.111 243.784 254.739 227.567 254.925C227.567 254.925 216.869 273.84 218.575 290.15C218.575 290.15 227.319 292.289 235.567 297.685C249.707 306.925 256.932 325.158 278.017 321.561L282.978 306.708" fill="#19B28D"/>
<path d="M377.584 247.297C376.964 246.925 376.778 246.119 377.15 245.53L378.886 242.708C379.258 242.088 380.065 241.902 380.654 242.274C381.274 242.646 381.46 243.452 381.088 244.041L379.351 246.863C379.01 247.483 378.204 247.669 377.584 247.297Z" fill="#1C2433"/>
<path d="M386.389 250.956C385.769 250.584 385.582 249.778 385.955 249.189L387.691 246.367C388.063 245.747 388.869 245.561 389.458 245.933C390.079 246.305 390.265 247.111 389.893 247.701L388.156 250.522C387.815 251.111 387.009 251.328 386.389 250.956Z" fill="#1C2433"/>
<path d="M258.326 292.506C257.954 293.468 257.427 294.181 256.776 294.615C256.124 295.049 255.287 295.204 254.264 295.111L253.272 297.623C253.241 297.685 253.179 297.747 253.117 297.778C253.055 297.809 252.962 297.809 252.9 297.778L249.582 296.444C249.52 296.413 249.458 296.351 249.427 296.289C249.396 296.227 249.396 296.134 249.427 296.072L250.326 293.84C249.706 293.561 249.179 293.282 248.682 293.034C248.62 293.003 248.589 292.941 248.558 292.879C248.527 292.817 248.527 292.723 248.558 292.661L249.892 290.088C249.923 289.995 249.985 289.964 250.078 289.933C250.171 289.902 250.233 289.933 250.326 289.995C250.512 290.119 250.698 290.243 250.915 290.367C251.101 290.491 251.38 290.646 251.721 290.832C252.062 291.018 252.372 291.173 252.651 291.266C252.962 291.39 253.272 291.483 253.52 291.483C253.768 291.483 253.985 291.452 254.14 291.328C254.295 291.235 254.388 291.142 254.481 291.049C254.574 290.956 254.605 290.863 254.636 290.801C254.667 290.708 254.698 290.615 254.698 290.491C254.698 290.367 254.698 290.212 254.636 289.995C254.605 289.778 254.481 289.561 254.264 289.282C254.078 289.034 253.799 288.785 253.458 288.537C253.055 288.258 252.713 287.917 252.434 287.545C252.124 287.142 251.876 286.708 251.69 286.212C251.504 285.716 251.411 285.158 251.411 284.537C251.411 283.917 251.535 283.297 251.783 282.677C252.124 281.809 252.651 281.158 253.334 280.723C254.016 280.289 254.853 280.103 255.814 280.165L256.838 277.561C256.869 277.499 256.931 277.437 256.993 277.406C257.055 277.375 257.148 277.375 257.21 277.406L260.527 278.739C260.589 278.77 260.651 278.832 260.683 278.894C260.714 278.956 260.714 279.049 260.683 279.111L259.783 281.344C260.372 281.623 260.931 281.902 261.489 282.181C261.551 282.212 261.582 282.274 261.613 282.336C261.644 282.398 261.644 282.491 261.613 282.553L260.279 285.127C260.248 285.189 260.186 285.251 260.093 285.282C260 285.313 259.938 285.282 259.876 285.251C259.039 284.692 258.233 284.227 257.489 283.917C257.179 283.793 256.9 283.7 256.651 283.7C256.403 283.7 256.186 283.731 256.031 283.855C255.876 283.948 255.752 284.041 255.69 284.134C255.628 284.227 255.566 284.32 255.535 284.413C255.504 284.506 255.473 284.599 255.473 284.723C255.473 284.847 255.473 285.003 255.535 285.22C255.566 285.437 255.69 285.654 255.907 285.933C256.093 286.181 256.372 286.46 256.714 286.677C257.086 286.956 257.427 287.297 257.737 287.7C258.047 288.103 258.295 288.537 258.481 289.034C258.667 289.53 258.76 290.088 258.76 290.708C258.729 291.266 258.605 291.886 258.326 292.506Z" fill="#FFFEF2"/>
<path d="M252.994 298.305C252.9 298.305 252.807 298.274 252.714 298.243L249.397 296.91C249.211 296.848 249.055 296.692 248.993 296.506C248.9 296.32 248.9 296.134 248.993 295.948L249.738 294.119C249.273 293.902 248.838 293.685 248.466 293.468C248.311 293.375 248.187 293.22 248.125 293.034C248.063 292.848 248.063 292.661 248.156 292.506C248.156 292.506 248.156 292.475 248.187 292.475L249.521 289.902C249.614 289.716 249.8 289.561 250.017 289.53C250.234 289.468 250.451 289.53 250.637 289.654C250.823 289.778 251.009 289.902 251.195 290.026C251.381 290.15 251.66 290.305 251.97 290.46C252.28 290.615 252.59 290.77 252.838 290.894C253.118 291.018 253.335 291.08 253.552 291.08C253.769 291.08 253.862 291.049 253.893 291.018C254.017 290.925 254.11 290.863 254.141 290.832C254.203 290.77 254.234 290.708 254.234 290.708C254.234 290.677 254.265 290.615 254.265 290.522C254.265 290.46 254.265 290.367 254.234 290.15C254.203 290.057 254.141 289.902 253.955 289.654C253.8 289.437 253.552 289.22 253.242 289.003C252.807 288.692 252.435 288.32 252.094 287.886C251.784 287.452 251.505 286.987 251.288 286.429C251.071 285.871 250.978 285.251 250.978 284.568C250.978 283.886 251.133 283.204 251.381 282.522C251.753 281.561 252.373 280.816 253.118 280.351C253.8 279.917 254.606 279.731 255.536 279.7L256.435 277.406C256.497 277.22 256.652 277.095 256.807 277.002C256.994 276.909 257.211 276.909 257.397 276.971L260.745 278.305C260.932 278.367 261.087 278.522 261.149 278.708C261.242 278.894 261.242 279.111 261.149 279.297L260.404 281.127C260.87 281.344 261.304 281.561 261.738 281.809C261.893 281.902 262.017 282.057 262.079 282.212C262.141 282.429 262.141 282.615 262.048 282.832L260.714 285.406C260.621 285.592 260.466 285.716 260.249 285.778C260.032 285.84 259.815 285.809 259.629 285.685C258.823 285.127 258.048 284.723 257.335 284.413C257.087 284.289 256.838 284.258 256.652 284.258C256.497 284.258 256.373 284.289 256.28 284.32C256.125 284.413 256.063 284.475 256.032 284.506C256.001 284.537 255.97 284.599 255.939 284.63C255.939 284.661 255.908 284.692 255.908 284.785C255.908 284.816 255.908 284.94 255.97 285.158C256.001 285.251 256.063 285.437 256.249 285.685C256.404 285.902 256.652 286.119 256.962 286.336C257.366 286.646 257.769 287.018 258.079 287.452C258.42 287.886 258.699 288.382 258.885 288.909C259.102 289.468 259.195 290.088 259.195 290.739C259.195 291.421 259.04 292.072 258.761 292.754C258.358 293.809 257.769 294.584 257.025 295.08C256.373 295.514 255.536 295.731 254.575 295.7L253.707 297.902C253.645 298.088 253.49 298.243 253.304 298.305C253.211 298.274 253.118 298.305 252.994 298.305ZM249.924 296.103L252.931 297.282L253.862 294.925C253.924 294.739 254.141 294.615 254.327 294.646C255.226 294.739 255.97 294.584 256.528 294.212C257.118 293.84 257.583 293.189 257.924 292.32C258.141 291.762 258.265 291.173 258.265 290.615C258.265 290.057 258.203 289.561 258.017 289.127C257.831 288.661 257.614 288.258 257.335 287.917C257.056 287.545 256.745 287.235 256.404 286.987C256.032 286.739 255.722 286.429 255.505 286.15C255.257 285.84 255.102 285.53 255.04 285.251C254.978 285.002 254.978 284.785 254.978 284.63C254.978 284.444 255.009 284.289 255.071 284.165C255.133 284.01 255.226 283.886 255.319 283.762C255.412 283.638 255.567 283.514 255.753 283.39C255.97 283.235 256.28 283.173 256.621 283.173C256.931 283.173 257.304 283.266 257.645 283.421C258.358 283.731 259.133 284.134 259.939 284.661L261.087 282.429C260.59 282.181 260.094 281.933 259.567 281.685C259.35 281.592 259.226 281.313 259.319 281.096L260.156 279.018L257.149 277.809L256.187 280.227C256.125 280.413 255.939 280.537 255.722 280.506C254.854 280.475 254.11 280.63 253.521 281.002C252.9 281.375 252.466 281.933 252.156 282.739C251.939 283.297 251.815 283.886 251.815 284.444C251.815 285.002 251.877 285.499 252.063 285.933C252.249 286.398 252.466 286.801 252.745 287.173C253.024 287.514 253.335 287.824 253.676 288.072C254.048 288.351 254.358 288.63 254.575 288.909C254.823 289.22 254.978 289.53 255.009 289.809C255.071 290.057 255.071 290.243 255.071 290.429C255.071 290.615 255.04 290.77 254.978 290.894C254.916 291.018 254.854 291.142 254.73 291.297C254.637 291.421 254.482 291.545 254.296 291.669C254.079 291.824 253.8 291.886 253.428 291.886C253.118 291.886 252.745 291.793 252.373 291.638C252.063 291.514 251.753 291.359 251.412 291.173C251.071 290.987 250.823 290.832 250.606 290.708C250.451 290.615 250.296 290.522 250.172 290.429L249.024 292.692C249.459 292.91 249.955 293.158 250.482 293.406C250.699 293.499 250.823 293.778 250.73 293.995L249.924 296.103Z" fill="#FFFEF2"/>
<path d="M292.125 327.452C284.187 324.383 280.9 316.693 283.722 306.894C283.722 306.894 270.916 307.762 270.358 303.638C269.645 298.212 282.885 293.747 289.304 297.84" fill="#FFFEF2"/>
<path d="M292.125 328.538C292.001 328.538 291.877 328.507 291.722 328.476C283.629 325.344 280.094 317.592 282.296 308.042C278.42 308.166 269.862 307.98 269.303 303.794C269.024 301.685 270.296 299.608 272.9 297.964C277.397 295.111 285.18 293.902 289.924 296.941C290.42 297.251 290.575 297.933 290.265 298.429C289.955 298.925 289.273 299.08 288.776 298.77C284.931 296.321 277.955 297.344 274.079 299.794C273.024 300.476 271.257 301.871 271.474 303.515C271.753 305.53 278.73 306.15 283.691 305.809C284.032 305.778 284.373 305.933 284.621 306.212C284.838 306.491 284.931 306.863 284.807 307.205C282.172 316.383 285.055 323.577 292.559 326.46C293.118 326.678 293.397 327.298 293.18 327.856C292.963 328.259 292.559 328.538 292.125 328.538Z" fill="#1C2433"/>
<path d="M310.204 391.794C309.584 391.794 309.119 391.298 309.119 390.709C309.801 332.693 306.917 304.693 288.003 292.135C287.506 291.794 287.382 291.142 287.692 290.615C288.034 290.119 288.685 289.995 289.212 290.305C298.855 296.724 304.592 306.677 307.786 322.585C310.7 337.096 311.724 356.817 311.29 390.709C311.29 391.329 310.824 391.794 310.204 391.794Z" fill="#1C2433"/>
<path d="M276.063 363.081C275.97 363.081 275.908 363.081 275.815 363.05C275.226 362.926 274.854 362.337 274.978 361.748C276.559 354.709 278.079 341.22 278.513 337.282C273.149 336.476 267.567 330.647 266.947 327.019C266.854 326.43 267.257 325.872 267.846 325.778C268.435 325.685 268.993 326.089 269.086 326.678C269.521 329.344 274.947 335.205 279.691 335.205C280.001 335.205 280.28 335.329 280.497 335.577C280.714 335.794 280.807 336.104 280.776 336.414C280.714 337.127 278.947 353.841 277.056 362.244C276.994 362.74 276.559 363.081 276.063 363.081Z" fill="#1C2433"/>
<path d="M438.607 355.205C438.297 355.205 438.018 355.081 437.801 354.833L415.103 328.755C414.917 328.538 414.824 328.259 414.824 327.98L418.359 277.685C418.39 277.313 418.607 277.003 418.917 276.817C419.227 276.631 419.63 276.631 419.941 276.786C423.351 278.554 428.592 278.678 432.127 277.034C434.328 276.011 435.662 274.461 436.127 272.383C436.592 270.274 435.444 268.631 434.359 267.639C431.91 265.375 426.824 263.67 421.367 265.282C420.778 265.468 420.189 265.127 420.003 264.538C419.816 263.949 420.158 263.36 420.747 263.174C426.204 261.561 432.282 262.709 435.848 266.026C437.956 267.98 438.793 270.398 438.235 272.848C437.615 275.546 435.817 277.685 433.026 278.988C429.367 280.693 424.313 280.786 420.406 279.329L417.026 327.639L439.413 353.376C439.817 353.841 439.755 354.523 439.32 354.895C439.134 355.112 438.855 355.205 438.607 355.205Z" fill="#1C2433"/>
<path d="M430.545 272.723C430.328 272.723 430.08 272.661 429.894 272.506C429.429 272.196 425.739 270.677 422.235 272.01C421.677 272.227 421.056 271.948 420.839 271.39C420.622 270.832 420.901 270.212 421.459 269.995C425.925 268.289 430.514 270.181 431.258 270.801C431.723 271.173 431.785 271.855 431.382 272.32C431.165 272.599 430.855 272.723 430.545 272.723ZM429.832 272.475C429.863 272.475 429.863 272.475 429.832 272.475C429.863 272.475 429.863 272.475 429.832 272.475Z" fill="#1C2433"/>
<path d="M381.461 383.732C377.43 383.732 374.019 382.43 371.538 379.887C367.724 375.98 366.949 370.12 367.476 365.934C367.538 365.344 368.096 364.91 368.685 365.003C369.275 365.065 369.709 365.623 369.616 366.213C369.151 369.903 369.802 375.019 373.088 378.399C375.507 380.879 378.918 381.934 383.228 381.5C383.817 381.437 384.344 381.872 384.406 382.461C384.468 383.05 384.034 383.577 383.445 383.639C382.794 383.701 382.112 383.732 381.461 383.732Z" fill="#1C2433"/>
<path d="M328.158 396.972C328.003 396.972 327.817 396.941 327.662 396.848C327.134 396.569 326.917 395.918 327.196 395.391C332.375 385.406 332.933 384.073 333.646 379.577C334.018 377.22 334.142 374.708 334.297 372.011C334.731 363.577 335.228 353.995 343.662 345.716C344.096 345.313 344.778 345.313 345.181 345.747C345.615 346.181 345.584 346.863 345.15 347.266C337.305 354.956 336.84 364.073 336.437 372.104C336.282 374.832 336.158 377.437 335.755 379.887C334.979 384.817 334.173 386.553 329.088 396.352C328.933 396.755 328.561 396.972 328.158 396.972Z" fill="#1C2433"/>
<path d="M310.297 374.429C310.049 374.429 309.832 374.367 309.615 374.212C309.15 373.84 309.057 373.158 309.429 372.693C327.723 349.437 356.003 320.941 362.638 315.328C363.848 295.948 365.522 267.39 365.46 262.956C364.964 262.77 364.189 262.522 363.414 262.274C350.979 258.15 342.793 254.615 343.196 250.677C343.32 249.654 343.476 248.072 363.817 239.948C373.584 236.041 383.445 232.475 383.538 232.444C384.096 232.227 384.716 232.537 384.933 233.095C385.15 233.654 384.84 234.274 384.282 234.491C366.359 240.971 347.072 248.878 345.336 251.049C345.398 251.545 346.111 253.095 352.034 255.762C356.158 257.623 361.119 259.266 364.096 260.227C366.669 261.096 366.98 261.189 367.259 261.468C367.693 261.902 367.786 261.995 367.352 270.894C367.135 275.359 366.793 281.561 366.359 289.313C365.615 302.522 364.778 315.824 364.778 315.949C364.747 316.259 364.623 316.538 364.375 316.724C358.545 321.468 329.708 350.46 311.134 374.057C310.948 374.305 310.638 374.429 310.297 374.429Z" fill="#1C2433"/>
<path d="M380.405 269.251C379.878 269.251 379.413 269.22 378.948 269.158C378.359 269.065 377.955 268.507 378.049 267.917C378.142 267.328 378.7 266.925 379.289 267.018C383.785 267.762 393.77 263.638 396.777 259.824C397.149 259.359 397.832 259.266 398.297 259.638C398.762 260.01 398.855 260.693 398.483 261.158C395.289 265.22 385.987 269.251 380.405 269.251Z" fill="#1C2433"/>
<path d="M383.351 265.437C383.227 265.437 383.134 265.406 383.01 265.375C382.452 265.189 382.141 264.569 382.328 264.01C382.979 262.026 384.653 260.413 386.793 259.7C389.149 258.894 391.754 259.297 393.955 260.786C394.452 261.127 394.576 261.809 394.235 262.305C393.893 262.801 393.211 262.925 392.715 262.584C391.103 261.468 389.18 261.189 387.475 261.747C385.986 262.243 384.808 263.359 384.374 264.693C384.25 265.127 383.816 265.437 383.351 265.437Z" fill="#1C2433"/>
<path d="M390.205 274.088C388.003 274.088 385.74 273.313 383.91 271.855C383.445 271.483 383.383 270.801 383.755 270.336C384.127 269.871 384.81 269.809 385.275 270.181C387.383 271.886 390.267 272.413 392.624 271.483C395.042 270.553 396.624 268.227 397.12 264.816C397.213 264.227 397.771 263.824 398.36 263.917C398.949 264.01 399.352 264.568 399.259 265.157C398.639 269.344 396.562 272.32 393.399 273.53C392.376 273.902 391.29 274.088 390.205 274.088Z" fill="#1C2433"/>
<path d="M375.29 342.181C374.67 342.181 374.05 341.995 373.429 341.654C368.995 339.174 364.499 328.383 362.856 321.871C362.701 321.282 363.073 320.693 363.631 320.538C364.22 320.383 364.809 320.755 364.964 321.313C366.794 328.507 371.228 337.902 374.484 339.732C374.918 339.98 375.259 340.042 375.538 339.949C376.654 339.608 378.918 338.429 381.802 336.972C388.468 333.561 399.631 327.887 411.879 324.414C412.468 324.259 413.058 324.6 413.213 325.158C413.368 325.747 413.027 326.336 412.468 326.491C400.437 329.902 389.367 335.515 382.794 338.894C379.693 340.476 377.46 341.623 376.189 341.995C375.879 342.15 375.6 342.181 375.29 342.181Z" fill="#1C2433"/>
<path d="M398.917 316.352C403.32 315.794 404.839 322.275 399.413 322.802C394.886 323.267 393.335 317.066 398.917 316.352Z" fill="#FFFEF2"/>
<path d="M398.979 323.918C396.312 323.918 394.514 321.996 394.296 319.98C394.079 317.934 395.382 315.701 398.793 315.267C400.529 315.05 402.11 315.701 403.103 317.035C404.033 318.306 404.25 319.918 403.63 321.283C403.258 322.151 402.204 323.608 399.537 323.887C399.351 323.918 399.165 323.918 398.979 323.918ZM399.041 317.438C397.304 317.655 396.281 318.523 396.436 319.732C396.56 320.818 397.614 321.903 399.32 321.717C400.498 321.593 401.335 321.128 401.645 320.414C401.924 319.763 401.8 318.957 401.335 318.337C401.056 317.934 400.343 317.283 399.041 317.438Z" fill="#1C2433"/>
<path d="M390.204 317.902C394.608 317.344 396.127 323.824 390.701 324.351C386.204 324.817 384.654 318.615 390.204 317.902Z" fill="#FFFEF2"/>
<path d="M390.266 325.468C387.599 325.468 385.801 323.546 385.584 321.53C385.367 319.484 386.669 317.251 390.08 316.817C391.816 316.6 393.398 317.251 394.39 318.584C395.32 319.856 395.537 321.468 394.917 322.832C394.545 323.701 393.491 325.158 390.824 325.437C390.638 325.468 390.452 325.468 390.266 325.468ZM390.359 318.988C388.622 319.205 387.599 320.073 387.754 321.282C387.878 322.367 388.932 323.453 390.638 323.267C391.816 323.143 392.653 322.677 392.963 321.964C393.243 321.313 393.119 320.507 392.653 319.887C392.343 319.484 391.661 318.832 390.359 318.988Z" fill="#1C2433"/>
<path d="M381.397 317.407C385.738 316.786 387.196 324.259 381.893 324.88C377.428 325.376 375.909 318.213 381.397 317.407Z" fill="#FFFEF2"/>
<path d="M381.428 325.996C378.792 325.996 377.118 323.887 376.839 321.748C376.56 319.484 377.8 316.848 381.242 316.352C382.823 316.135 384.312 316.724 385.304 317.996C386.42 319.453 386.699 321.531 386.017 323.174C385.366 324.755 383.94 325.748 382.017 325.965C381.8 325.965 381.614 325.996 381.428 325.996ZM381.893 318.461C381.769 318.461 381.676 318.461 381.552 318.492C379.412 318.802 378.823 320.228 378.978 321.469C379.133 322.771 380.157 323.98 381.769 323.794C382.885 323.67 383.66 323.143 384.002 322.306C384.405 321.376 384.219 320.135 383.567 319.298C383.257 318.926 382.73 318.461 381.893 318.461Z" fill="#1C2433"/>
<path d="M374.174 315.205C378.36 317.53 375.197 324.476 370.174 321.53C365.957 319.05 368.871 312.29 374.174 315.205Z" fill="#FFFEF2"/>
<path d="M372.561 323.329C371.723 323.329 370.731 323.112 369.646 322.46C366.855 320.817 366.576 317.747 367.754 315.701C368.902 313.685 371.506 312.476 374.731 314.274C376.313 315.143 377.212 316.662 377.243 318.398C377.274 320.197 376.313 321.902 374.824 322.771C374.297 323.019 373.522 323.329 372.561 323.329ZM371.692 315.577C370.7 315.577 369.987 316.104 369.615 316.786C368.964 317.933 369.119 319.67 370.731 320.6C371.847 321.251 372.871 321.344 373.708 320.879C374.514 320.414 375.041 319.422 375.041 318.429C375.041 317.871 374.855 316.848 373.677 316.197C372.902 315.763 372.251 315.577 371.692 315.577Z" fill="#1C2433"/>
<path d="M362.948 309.686C367.258 307.484 371.227 313.593 365.863 316.135C361.397 318.275 357.459 312.476 362.948 309.686Z" fill="#FFFEF2"/>
<path d="M363.94 317.686C362.017 317.686 360.374 316.569 359.629 315.081C358.668 313.127 359.164 310.399 362.451 308.693C364.126 307.825 365.955 307.918 367.412 308.879C368.808 309.809 369.614 311.391 369.521 312.972C369.459 313.965 368.932 315.825 366.327 317.065C365.521 317.499 364.684 317.686 363.94 317.686ZM364.808 310.306C364.405 310.306 363.94 310.399 363.443 310.647C361.676 311.546 360.963 312.879 361.583 314.12C362.141 315.236 363.66 315.98 365.397 315.143C366.606 314.554 367.288 313.747 367.35 312.848C367.412 312.042 366.947 311.205 366.203 310.709C365.924 310.523 365.428 310.306 364.808 310.306Z" fill="#1C2433"/>
<path d="M408.499 314.709C413.491 314.089 415.196 321.407 409.057 321.996C403.941 322.492 402.173 315.484 408.499 314.709Z" fill="#FFFEF2"/>
<path d="M408.561 323.081C405.615 323.081 403.631 320.973 403.414 318.74C403.165 316.508 404.623 314.058 408.375 313.593L408.499 314.678L408.375 313.593C410.297 313.345 412.034 314.058 413.119 315.546C414.142 316.942 414.359 318.709 413.708 320.198C413.305 321.128 412.158 322.74 409.181 323.05C408.964 323.081 408.747 323.081 408.561 323.081ZM408.623 315.763C406.576 316.011 405.367 317.066 405.553 318.523C405.708 319.825 406.948 321.097 408.964 320.911C410.359 320.787 411.321 320.229 411.724 319.329C412.065 318.554 411.941 317.593 411.383 316.849C411.01 316.353 410.173 315.577 408.623 315.763Z" fill="#1C2433"/>
<path d="M417.273 313.84C421.707 312.6 424.25 318.771 418.793 320.166C414.234 321.313 411.661 315.422 417.273 313.84Z" fill="#FFFEF2"/>
<path d="M417.646 321.375C415.352 321.375 413.615 319.887 413.119 318.119C412.592 316.135 413.584 313.747 416.995 312.786C418.732 312.29 420.499 312.724 421.708 313.902C422.794 314.988 423.259 316.538 422.856 317.964C422.608 318.864 421.77 320.507 419.073 321.22C418.577 321.313 418.08 321.375 417.646 321.375ZM418.452 314.74C418.173 314.74 417.894 314.771 417.584 314.864C415.817 315.36 414.918 316.383 415.228 317.561C415.507 318.647 416.778 319.546 418.546 319.081C419.755 318.771 420.561 318.15 420.778 317.375C420.964 316.724 420.716 315.98 420.189 315.422C419.724 314.988 419.104 314.74 418.452 314.74Z" fill="#1C2433"/>
<path d="M433.089 226.181C433.089 226.181 436.097 218.026 441.865 218.305C455.911 218.925 450.423 235.421 450.423 235.421C457.214 232.786 460.81 239.577 457.834 244.29C454.888 249.003 450.113 247.608 450.113 247.608C453.741 250.46 446.95 259.019 440.314 259.143C433.679 259.267 433.462 255.825 433.462 255.825C430.547 258.057 427.291 256.972 425.896 254.15C425.834 263.484 417.896 270.647 411.508 265.468C404.562 259.825 406.516 245.964 406.516 245.964C404.5 246.987 403.105 244.786 405.213 242.894C398.826 247.204 392.128 242.956 396.376 237.189C392.159 241.034 378.857 241.096 376.748 234.956C375.601 231.577 379.105 229.84 379.105 229.84C379.105 229.84 372.903 226.212 374.919 220.693C376.965 215.173 390.919 215.421 398.826 225.065C398.826 225.065 399.539 221.437 404.624 222.677C409.709 223.918 410.144 232.848 410.144 232.848C410.144 232.848 414.516 230.584 418.795 234.801C418.795 234.801 416.469 229.282 421.182 225.22C426.454 220.693 433.089 226.181 433.089 226.181Z" fill="#1C2433"/>
<path d="M416.065 268.321C414.235 268.321 412.437 267.639 410.794 266.336C404.778 261.437 404.964 251.174 405.274 247.329C404.561 247.267 403.91 246.925 403.476 246.305C403.259 245.995 403.135 245.623 403.073 245.22C399.817 246.367 396.84 245.623 395.259 243.98C394.359 243.018 393.739 241.561 394.018 239.794C390.7 241.065 386.111 241.375 382.266 240.383C378.855 239.515 376.53 237.716 375.724 235.329C374.886 232.879 376.003 230.987 377.243 229.84C374.948 227.98 372.375 224.507 373.925 220.321C374.7 218.181 376.871 216.724 379.972 216.197C385.119 215.328 392.933 217.189 398.576 223.142C398.855 222.77 399.228 222.429 399.724 222.119C401.057 221.282 402.793 221.096 404.902 221.623C409.429 222.708 410.731 228.631 411.104 231.391C412.499 231.049 414.732 230.894 417.15 232.228C417.026 229.84 417.708 226.801 420.499 224.414C424.592 220.91 429.677 222.646 432.592 224.569C433.77 222.119 436.84 217.034 441.863 217.282C445.863 217.468 448.809 218.863 450.577 221.468C453.305 225.406 452.561 231.018 451.91 233.933C454.453 233.499 456.778 234.274 458.298 236.104C460.282 238.491 460.437 242.119 458.701 244.91C456.84 247.887 454.143 248.848 452.034 248.941C452.22 249.778 452.127 250.739 451.786 251.763C450.453 255.732 445.367 260.197 440.22 260.29C435.538 260.352 433.615 258.77 432.809 257.499C431.538 258.15 430.142 258.336 428.84 258.026C428.034 257.84 427.29 257.468 426.608 256.972C425.832 261.716 423.104 265.871 419.476 267.577C418.421 268.042 417.243 268.321 416.065 268.321ZM406.514 244.879C406.731 244.879 406.949 244.941 407.135 245.065C407.476 245.313 407.631 245.685 407.569 246.088C407.538 246.212 405.77 259.422 412.158 264.6C414.7 266.678 417.088 266.243 418.638 265.499C422.204 263.825 424.747 259.143 424.747 254.119C424.747 253.623 425.088 253.189 425.584 253.065C426.08 252.941 426.577 253.189 426.794 253.623C427.352 254.739 428.313 255.546 429.398 255.794C430.515 256.042 431.662 255.732 432.747 254.895C433.088 254.646 433.522 254.553 433.894 254.739C434.266 254.926 434.484 255.267 434.515 255.67C434.546 255.887 435.042 258.088 440.251 257.995C444.313 257.933 448.716 254.15 449.77 250.957C450.174 249.778 450.05 248.91 449.398 248.414C448.995 248.104 448.871 247.515 449.119 247.05C449.367 246.584 449.894 246.367 450.391 246.491C450.546 246.522 454.422 247.577 456.902 243.639C458.174 241.623 458.05 239.049 456.654 237.344C455.352 235.763 453.212 235.391 450.794 236.352C450.391 236.507 449.956 236.414 449.646 236.135C449.336 235.856 449.243 235.391 449.367 235.018C449.398 234.925 451.941 227.111 448.809 222.553C447.414 220.538 445.057 219.452 441.77 219.297C441.708 219.297 441.615 219.297 441.553 219.297C436.778 219.297 434.08 226.398 434.049 226.491C433.925 226.832 433.646 227.08 433.305 227.173C432.964 227.266 432.592 227.173 432.344 226.956C432.096 226.739 426.359 222.088 421.894 225.933C417.832 229.406 419.724 234.088 419.786 234.274C419.972 234.739 419.817 235.298 419.383 235.577C418.949 235.856 418.39 235.825 418.018 235.453C414.39 231.887 410.794 233.623 410.638 233.685C410.297 233.84 409.925 233.84 409.615 233.654C409.305 233.468 409.088 233.127 409.088 232.786C408.964 230.522 407.91 224.476 404.406 223.608C402.917 223.235 401.739 223.328 400.933 223.825C400.096 224.321 399.91 225.158 399.91 225.189C399.817 225.592 399.507 225.933 399.103 226.026C398.7 226.119 398.266 225.964 398.018 225.654C392.871 219.39 385.243 217.406 380.344 218.243C378.049 218.615 376.468 219.639 375.972 221.003C374.266 225.623 379.631 228.817 379.693 228.848C380.034 229.065 380.251 229.437 380.22 229.809C380.189 230.181 379.972 230.553 379.631 230.739C379.351 230.863 376.995 232.166 377.801 234.553C378.576 236.817 381.274 237.809 382.824 238.212C387.32 239.36 393.305 238.491 395.662 236.352C396.065 235.98 396.716 235.98 397.119 236.352C397.522 236.724 397.584 237.344 397.274 237.809C395.941 239.639 395.786 241.313 396.84 242.429C398.204 243.825 401.367 244.166 404.592 241.964C405.057 241.654 405.708 241.747 406.049 242.212C406.39 242.677 406.328 243.298 405.894 243.701C405.15 244.352 405.15 244.879 405.243 245.034C405.336 245.158 405.615 245.158 405.987 244.972C406.173 244.91 406.328 244.879 406.514 244.879Z" fill="#1C2433"/>
<path d="M45.1167 154.274C44.8996 154.274 44.6825 154.212 44.4965 154.088C44.4345 154.057 39.4112 150.677 35.8763 150.522C35.2871 150.491 34.822 149.995 34.853 149.406C34.884 148.816 35.3802 148.351 35.9693 148.382C40.1244 148.568 45.4887 152.165 45.7058 152.32C46.2019 152.661 46.326 153.344 45.9849 153.84C45.7988 154.119 45.4577 154.274 45.1167 154.274Z" fill="#1C2433"/>
<path d="M95.8456 112.103C109.055 114.552 105.675 124.816 95.6905 129.963C85.5199 135.173 68.5276 132.444 68.5276 132.444C68.5276 132.444 68.2795 139.638 60.7756 145.157C53.2717 150.676 41.2406 146.614 38.822 143.359C33.5196 136.227 39.3181 122.614 53.1787 128.041C53.1787 128.041 47.5972 114.056 60.7756 110.025C71.8454 106.645 74.7292 115.731 83.0083 117.529C102.419 121.808 93.768 111.7 95.8456 112.103Z" fill="#1C2433"/>
<path d="M51.6592 148.94C45.5507 148.94 39.6592 146.304 37.9227 143.979C34.946 139.948 35.039 134.056 38.2018 129.932C41.1476 126.087 46.0158 124.816 51.5042 126.335C50.884 123.824 50.2949 119.452 52.1554 115.545C53.6748 112.413 56.4345 110.211 60.4345 108.971C67.8454 106.707 71.9074 109.684 75.8144 112.537C78.109 114.211 80.3106 115.824 83.1943 116.444C91.4114 118.242 93.83 117.281 94.5432 116.537C95.1634 115.886 94.9463 114.8 94.6362 113.56C94.4192 112.692 94.2021 111.948 94.7602 111.327C94.9153 111.172 95.3184 110.8 96.0316 110.955C103.567 112.351 105.21 116.072 105.52 118.18C106.171 122.552 102.388 127.638 96.1556 130.831C87.1943 135.421 73.4578 134.087 69.4268 133.56C69.0237 135.948 67.4423 141.436 61.3647 145.932C58.512 148.134 55.0391 148.94 51.6592 148.94ZM47.1321 127.886C44.1553 127.886 41.6437 129.033 39.9382 131.266C37.3956 134.583 37.3026 139.483 39.6902 142.708C41.8917 145.653 53.3337 149.281 60.1244 144.289C67.1322 139.142 67.4423 132.475 67.4423 132.413C67.4423 132.103 67.5973 131.824 67.8454 131.607C68.0934 131.421 68.4035 131.328 68.7136 131.359C68.8686 131.39 85.4579 133.994 95.2254 129.002C100.559 126.273 103.908 121.994 103.411 118.583C103.07 116.196 100.745 114.397 96.8378 113.436C97.1789 114.738 97.52 116.661 96.1246 118.118C94.2641 120.072 90.016 120.227 82.7602 118.645C79.4113 117.901 76.9617 116.103 74.5741 114.366C70.7601 111.576 67.4733 109.157 61.1166 111.11C57.7368 112.134 55.3802 113.963 54.1709 116.537C51.8143 121.467 54.2019 127.607 54.2329 127.669C54.3879 128.072 54.2949 128.537 53.9848 128.847C53.6748 129.157 53.2096 129.25 52.8065 129.095C50.76 128.258 48.8685 127.886 47.1321 127.886Z" fill="#1C2433"/>
<path d="M109.117 257.251C108.621 257.251 108.156 256.91 108.063 256.382C105.272 242.77 96.3731 224.103 96.2801 223.917C96.187 223.762 96.156 223.576 96.187 223.39L98.7917 168.413C98.8227 168.072 98.9777 167.762 99.2568 167.576C99.5359 167.39 99.877 167.328 100.187 167.421C108.497 169.777 118.234 171.979 120.621 171.731C120.311 170.056 117.676 164.382 111.195 154.242C104.714 144.103 97.4584 134.397 91.7839 128.289C91.3808 127.855 91.4118 127.172 91.8459 126.769C92.28 126.366 92.9622 126.397 93.3653 126.831C99.1328 133.064 106.513 142.893 113.055 153.157C115.443 156.878 123.195 169.312 122.823 172.413C122.73 173.064 122.358 173.405 122.141 173.56C121.552 173.932 120.342 174.708 109.644 172.196C106.141 171.359 102.73 170.459 100.931 169.963L98.3886 223.328C99.4739 225.623 107.567 243.049 110.234 256.041C110.358 256.63 109.986 257.189 109.396 257.313C109.241 257.251 109.179 257.251 109.117 257.251Z" fill="#1C2433"/>
<path d="M76.5896 217.809C62.295 217.809 48.4655 214.491 42.605 208.878C42.1708 208.475 42.1708 207.762 42.5739 207.359C42.9771 206.925 43.6902 206.925 44.0933 207.328C47.6903 210.77 55.0391 213.498 64.2795 214.832C73.7679 216.196 84.2796 215.917 93.1169 214.057C93.706 213.933 94.2642 214.305 94.3882 214.894C94.5122 215.483 94.1401 216.041 93.551 216.165C88.1556 217.281 82.3261 217.809 76.5896 217.809Z" fill="#1C2433"/>
<path d="M58.2328 234.15C54.2638 234.15 50.1397 229.002 43.411 220.196C43.0389 219.731 43.1319 219.049 43.628 218.677C44.0932 218.305 44.7753 218.398 45.1474 218.894C51.349 227.049 55.6591 232.351 58.5739 231.979C60.8685 231.669 68.4654 225.126 72.1243 221.964C73.7367 220.568 74.915 219.576 75.5352 219.111C79.1941 216.475 82.543 219.452 85.6128 223.049C86.7911 224.444 90.419 228.661 92.8686 228.134C94.512 227.762 95.5973 225.219 96.1865 223.142C96.3415 222.553 96.9617 222.243 97.5198 222.398C98.109 222.553 98.419 223.173 98.264 223.731C97.1477 227.638 95.5353 229.747 93.3337 230.243C90.0159 230.956 86.574 227.545 83.9383 224.475C79.6592 219.483 78.0468 219.948 76.7755 220.878C76.2484 221.25 74.977 222.336 73.5197 223.607C67.3181 228.94 61.5506 233.778 58.8219 234.119C58.6359 234.15 58.4498 234.15 58.2328 234.15Z" fill="#1C2433"/>
<path d="M78.4824 234.181C78.3584 234.181 78.2033 234.181 78.0793 234.15C75.5367 233.685 72.963 230.398 70.4824 224.352C70.2653 223.793 70.5134 223.173 71.0715 222.925C71.6297 222.708 72.2498 222.956 72.4979 223.514C75.5677 230.925 77.8622 231.887 78.4824 232.011C79.6297 232.228 83.6917 227.731 85.2111 224.91C85.4902 224.383 86.1414 224.166 86.6685 224.476C87.1956 224.755 87.4127 225.406 87.1026 225.933C86.5445 226.987 81.8933 234.181 78.4824 234.181Z" fill="#1C2433"/>
<path d="M86.1716 258.025C85.5824 258.025 85.1173 257.56 85.0863 257.002C84.2801 239.793 80.4971 233.343 80.125 232.723C80.094 232.692 80.063 232.661 80.032 232.63C79.6599 232.165 79.6909 231.483 80.156 231.111C80.4661 230.831 80.9312 230.769 81.3033 230.955C82.3266 231.39 83.7219 235.359 84.3421 237.374C85.4274 241.002 86.8227 247.328 87.2568 256.94C87.2878 257.529 86.8227 258.056 86.2336 258.087C86.2026 258.025 86.1716 258.025 86.1716 258.025Z" fill="#1C2433"/>
<path d="M92.9322 166.18C92.9322 168.165 88.8081 175.948 83.5678 180.227C80.7771 182.49 77.6763 183.762 74.6996 182.614C71.1336 181.25 68.9631 178.738 67.7538 176.165C66.0173 172.537 66.2344 168.847 67.1956 168.32C70.1414 166.676 92.9322 164.382 92.9322 166.18Z" fill="#1C2433"/>
<path d="M76.9937 184.102C76.0635 184.102 75.1953 183.947 74.3271 183.606C70.048 181.994 67.8774 178.893 66.7611 176.629C64.9317 172.785 64.8696 168.35 66.6681 167.358C68.4045 166.397 74.9782 165.467 80.0945 164.97C84.3116 164.567 91.6605 164.009 93.3039 165.002C93.769 165.281 94.0171 165.715 94.0171 166.18C94.0171 168.784 89.4589 176.847 84.2496 181.064C81.769 183.079 79.3193 184.102 76.9937 184.102ZM67.7844 169.219C67.4123 169.808 67.2572 172.66 68.7146 175.699C69.6449 177.622 71.4743 180.226 75.0712 181.591C77.3658 182.459 79.9705 181.715 82.8852 179.358C87.6294 175.513 91.1334 168.971 91.7535 166.707C88.2186 166.087 70.4821 167.885 67.7844 169.219Z" fill="#1C2433"/>
<path d="M83.5992 180.227C80.8085 182.49 77.7077 183.762 74.7309 182.614C71.165 181.25 68.9945 178.738 67.7852 176.165C73.5836 174.366 80.9015 174.397 83.5992 180.227Z" fill="#FFFEF2"/>
<path d="M76.9938 184.103C76.0636 184.103 75.1954 183.948 74.3272 183.607C70.0481 181.994 67.8775 178.893 66.7612 176.63C66.6372 176.351 66.6062 176.01 66.7612 175.731C66.8853 175.451 67.1333 175.234 67.4434 175.141C73.8 173.188 81.614 173.374 84.5908 179.762C84.8078 180.227 84.6838 180.754 84.2807 181.064C81.7691 183.079 79.3194 184.103 76.9938 184.103ZM69.3659 176.847C70.4202 178.552 72.1876 180.475 75.1024 181.591C77.2109 182.397 79.5985 181.839 82.2032 179.917C79.7535 175.886 74.2651 175.638 69.3659 176.847Z" fill="#1C2433"/>
<path d="M150.451 244.352C149.862 244.352 149.366 243.856 149.366 243.267C149.366 238.554 147.506 233.809 145.304 232.91C144.839 232.724 144.56 232.259 144.622 231.763C145.149 227.856 146.544 218.647 147.847 217.096C148.405 216.445 149.366 216.228 150.699 215.918C153.645 215.267 158.606 214.15 162.296 207.608C162.575 207.081 163.258 206.895 163.785 207.205C164.312 207.484 164.498 208.166 164.188 208.693C160.033 216.073 154.265 217.375 151.165 218.057C150.513 218.212 149.707 218.399 149.459 218.523C148.839 219.453 147.63 225.685 146.823 231.298C149.862 233.22 151.475 238.709 151.475 243.236C151.537 243.856 151.04 244.352 150.451 244.352Z" fill="#1C2433"/>
<path d="M147.009 223.39C143.568 223.39 127.971 221.437 119.505 216.352C118.978 216.042 118.823 215.39 119.133 214.863C119.443 214.336 120.095 214.181 120.622 214.491C129.335 219.732 145.831 221.375 147.257 221.22C147.847 221.158 148.374 221.592 148.436 222.181C148.498 222.77 148.064 223.297 147.475 223.359C147.319 223.39 147.195 223.39 147.009 223.39Z" fill="#1C2433"/>
<path d="M145.706 233.002C145.675 233.002 145.644 233.002 145.644 233.002C127.132 231.731 118.574 227.142 116.372 225.778C115.876 225.467 115.721 224.785 116.031 224.289C116.341 223.793 117.023 223.638 117.519 223.948C119.008 224.878 127.287 229.56 145.768 230.832C146.357 230.863 146.822 231.39 146.76 231.979C146.76 232.568 146.264 233.002 145.706 233.002Z" fill="#1C2433"/>
<path d="M147.814 177.25C159.194 178.955 165.644 181.932 165.147 185.064C164.651 188.196 158.791 189.653 148.744 187.948C148.744 187.948 151.969 206.49 140 207.049" fill="#FFFEF2"/>
<path d="M140.001 208.165C139.412 208.165 138.947 207.7 138.916 207.141C138.885 206.552 139.35 206.025 139.939 205.994C142.295 205.87 144.094 205.002 145.427 203.358C149.396 198.397 147.691 188.258 147.691 188.165C147.629 187.823 147.753 187.451 148.001 187.203C148.249 186.955 148.59 186.831 148.962 186.893C155.66 188.041 160.993 187.761 163.195 186.211C163.722 185.839 164.032 185.405 164.094 184.909C164.156 184.568 164.032 184.227 163.753 183.854C162.171 181.684 156.156 179.606 147.66 178.335C147.071 178.242 146.668 177.684 146.761 177.095C146.854 176.506 147.412 176.102 148.001 176.195C153.396 177.002 162.823 178.893 165.52 182.583C166.14 183.42 166.389 184.351 166.233 185.281C166.047 186.335 165.458 187.265 164.435 187.978C161.861 189.808 156.807 190.273 150.047 189.281C150.388 192.506 150.792 200.196 147.164 204.723C145.458 206.862 143.071 208.041 140.094 208.196C140.032 208.165 140.001 208.165 140.001 208.165Z" fill="#1C2433"/>
<path d="M243.569 239.948C239.321 239.948 234.515 239.235 231.507 237.56C228.685 236.01 228.003 234.026 227.91 232.63C227.786 230.429 227.786 227.421 227.755 224.227C227.724 217.033 227.693 208.041 226.36 203.917C225.522 201.374 223.941 200.134 221.956 198.553C219.631 196.723 216.716 194.428 214.484 189.343C209.243 177.312 209.708 164.382 215.693 154.8C220.995 146.304 230.143 141.312 241.429 140.816C251.011 140.382 258.639 143.141 264.189 149.002C272.964 158.304 273.585 172.785 273.12 177.126C271.972 187.638 266.856 193.932 263.135 198.553C260.933 201.281 259.197 203.421 259.011 205.436C258.918 206.398 258.05 215.08 256.654 223.297C254.546 235.607 252.809 237.995 251.538 238.708C250.112 239.483 247.042 239.948 243.569 239.948ZM241.522 141.87L241.584 142.955C231.011 143.451 222.515 148.041 217.584 155.917C211.972 164.909 211.569 177.064 216.53 188.475C218.515 193.064 221.088 195.08 223.352 196.847C225.46 198.49 227.445 200.072 228.499 203.266C229.926 207.7 229.956 216.475 229.988 224.227C229.988 227.39 230.019 230.367 230.143 232.506C230.205 233.746 231.042 234.801 232.592 235.669C237.833 238.553 248.313 238.026 250.546 236.785C250.856 236.599 252.499 235.142 254.577 222.894C255.972 214.739 256.809 206.149 256.902 205.188C257.15 202.522 259.073 200.165 261.523 197.157C265.275 192.506 269.957 186.738 271.042 176.878C271.476 172.785 270.887 159.203 262.701 150.459C257.616 145.064 250.546 142.521 241.615 142.955L241.522 141.87Z" fill="#1C2433"/>
<path d="M243.384 220.568C238.05 220.568 232.81 219.421 228.283 217.096C227.756 216.816 227.538 216.165 227.818 215.638C228.097 215.111 228.748 214.894 229.275 215.173C237.12 219.173 247.167 219.483 256.159 216.041C256.717 215.824 257.337 216.103 257.554 216.661C257.771 217.22 257.492 217.84 256.934 218.057C252.531 219.731 247.911 220.568 243.384 220.568Z" fill="#1C2433"/>
<path d="M231.072 231.39C230.328 231.39 229.584 231.359 228.87 231.328C228.281 231.297 227.816 230.77 227.847 230.181C227.878 229.592 228.405 229.127 228.994 229.158C238.607 229.778 252.747 225.685 254.576 224.228C255.041 223.856 255.723 223.949 256.095 224.414C256.467 224.879 256.374 225.561 255.909 225.933C253.77 227.639 241.026 231.39 231.072 231.39Z" fill="#1C2433"/>
<path d="M237.709 220.103C237.678 220.103 237.616 220.103 237.585 220.103C236.996 220.041 236.562 219.514 236.624 218.894L236.779 217.406C238.298 203.917 239.353 194.553 238.392 188.63C235.663 189.002 233.027 189.002 230.826 188.475C227.26 187.607 226.546 185.747 226.422 184.692C226.205 182.925 227.477 181.002 229.554 179.917C231.539 178.894 234.578 178.615 237.027 180.847C238.454 182.15 239.446 183.886 240.035 186.119C241.74 185.778 243.477 185.281 245.151 184.692C245.12 183.731 245.12 182.832 245.089 181.964C244.965 177.56 246.516 174.057 249.43 172.382C251.508 171.173 254.02 171.111 255.818 172.227C257.337 173.157 258.144 174.801 258.051 176.692C257.926 178.677 256.5 180.723 253.926 182.646C252.19 183.948 249.895 185.157 247.384 186.181C247.539 197.468 247.105 213.344 246.764 219.08C246.733 219.669 246.206 220.134 245.616 220.103C245.027 220.072 244.562 219.545 244.593 218.956C244.934 213.375 245.337 198.181 245.213 186.987C243.694 187.514 242.112 187.948 240.531 188.258C241.554 194.615 240.5 204.103 238.95 217.654L238.795 219.142C238.702 219.7 238.236 220.103 237.709 220.103ZM232.717 181.343C231.725 181.343 230.888 181.685 230.547 181.871C229.306 182.491 228.469 183.576 228.593 184.444C228.686 185.25 229.709 185.964 231.353 186.367C233.213 186.832 235.508 186.832 237.926 186.491C237.43 184.785 236.655 183.452 235.57 182.46C234.609 181.623 233.585 181.343 232.717 181.343ZM252.872 173.653C252.097 173.653 251.26 173.871 250.516 174.305C248.345 175.576 247.167 178.336 247.26 181.933C247.291 182.553 247.291 183.204 247.322 183.886C249.337 183.018 251.198 181.995 252.624 180.94C254.64 179.452 255.818 177.902 255.88 176.63C255.973 175.235 255.291 174.522 254.702 174.15C254.144 173.809 253.523 173.653 252.872 173.653Z" fill="#1C2433"/>
<path d="M289.181 175.452C288.747 175.452 288.313 175.173 288.158 174.739C287.941 174.181 288.251 173.56 288.809 173.343C294.359 171.328 297.832 170.212 297.894 170.212C298.452 170.026 299.072 170.336 299.258 170.925C299.444 171.483 299.134 172.103 298.545 172.289C298.514 172.289 295.072 173.405 289.553 175.39C289.429 175.421 289.305 175.452 289.181 175.452Z" fill="#1C2433"/>
<path d="M195.878 160.475C195.723 160.475 195.568 160.444 195.413 160.382C190.08 157.808 186.855 156.103 186.824 156.103C186.297 155.824 186.079 155.173 186.359 154.645C186.638 154.118 187.289 153.901 187.816 154.18C187.847 154.211 191.041 155.886 196.312 158.428C196.839 158.676 197.087 159.328 196.808 159.886C196.653 160.258 196.281 160.475 195.878 160.475Z" fill="#1C2433"/>
<path d="M262.577 129.033C262.453 129.033 262.329 129.002 262.174 128.971C261.616 128.754 261.337 128.134 261.554 127.576C263.136 123.514 264.965 120.165 265.058 120.041C265.337 119.514 266.019 119.328 266.546 119.607C267.074 119.886 267.26 120.568 266.981 121.095C266.95 121.126 265.12 124.413 263.632 128.351C263.415 128.785 263.012 129.033 262.577 129.033Z" fill="#1C2433"/>
<path d="M242.36 122.459C241.833 122.459 241.368 122.056 241.275 121.529C241.244 121.343 240.655 116.909 241.275 109.56C241.337 108.971 241.864 108.506 242.453 108.568C243.042 108.63 243.507 109.157 243.445 109.746C242.825 116.816 243.445 121.157 243.445 121.219C243.538 121.808 243.104 122.366 242.515 122.459C242.453 122.459 242.422 122.459 242.36 122.459Z" fill="#1C2433"/>
<path d="M223.011 130.18C222.639 130.18 222.266 129.994 222.08 129.653C222.049 129.591 218.328 123.203 215.724 119.234C215.383 118.738 215.538 118.056 216.034 117.746C216.53 117.405 217.212 117.56 217.522 118.056C220.158 122.087 223.91 128.505 223.941 128.568C224.251 129.095 224.065 129.746 223.538 130.056C223.383 130.118 223.197 130.18 223.011 130.18Z" fill="#1C2433"/>
<path d="M493.894 179.917C488.777 179.917 465.056 165.715 459.63 161.653C456.157 162.645 436.498 168.134 416.56 170.894C415.971 170.987 415.412 170.552 415.35 169.963C415.257 169.374 415.692 168.816 416.281 168.754C437.955 165.746 459.351 159.483 459.568 159.421C459.909 159.328 460.281 159.39 460.56 159.607C466.483 164.351 488.901 176.878 493.366 177.715C492.653 173.994 484.932 158.273 481.49 151.297C478.731 145.684 478.297 144.754 478.235 144.351C478.049 143.39 478.793 142.8 479.599 142.211C481.149 141.033 484.343 138.552 486.08 130.986C486.452 129.374 486.793 127.172 487.103 124.444C487.165 123.855 487.723 123.42 488.312 123.482C488.901 123.544 489.335 124.103 489.273 124.692C488.963 127.482 488.591 129.777 488.188 131.483C486.297 139.793 482.669 142.583 480.932 143.948C480.808 144.041 480.653 144.165 480.529 144.289C480.963 145.25 482.204 147.762 483.475 150.366C494.7 173.157 496.219 177.653 495.413 179.142C495.289 179.359 494.979 179.762 494.359 179.886C494.173 179.886 494.049 179.917 493.894 179.917Z" fill="#D8C5FC"/>
<path d="M488.159 125.653C487.725 125.653 487.291 125.374 487.136 124.94C487.074 124.785 481.554 109.777 475.291 92.5058C468.81 74.6143 465.337 61.622 465.275 61.4979C465.151 61.0638 465.337 60.5987 465.678 60.3196C465.771 60.2576 473.74 54.4901 474.205 49.1878C474.329 47.6994 473.833 46.4281 472.717 45.2808C471.601 44.1645 470.422 43.6684 469.089 43.7614C465.368 44.0715 461.833 48.9707 461.802 49.0327C461.461 49.5289 460.779 49.6529 460.283 49.2808C459.787 48.9397 459.663 48.2575 460.035 47.7614C460.19 47.5133 464.159 41.9629 468.903 41.5598C470.887 41.4048 472.686 42.118 474.236 43.6994C475.818 45.3118 476.531 47.2033 476.345 49.3118C475.88 54.7072 469.585 60.0095 467.539 61.5599C468.345 64.4747 471.694 76.2267 477.275 91.6686C483.508 108.909 489.058 123.948 489.12 124.103C489.337 124.661 489.027 125.281 488.469 125.498C488.407 125.622 488.283 125.653 488.159 125.653Z" fill="#1C2433"/>
<path d="M415.879 170.956C415.817 170.956 415.724 170.956 415.662 170.925C415.073 170.801 414.701 170.212 414.825 169.653C417.243 158.087 426.577 138.645 428.251 135.204C427.321 133.374 424.22 126.893 424.22 121.281C424.22 115.266 426.701 114.893 434.018 113.715C435.476 113.498 437.119 113.219 439.042 112.878C452.778 110.397 470.143 104.878 478.019 98.0871C478.484 97.684 479.166 97.746 479.538 98.2112C479.941 98.6763 479.879 99.3585 479.414 99.7306C470.67 107.265 452.375 112.692 439.383 115.017C437.46 115.359 435.786 115.638 434.329 115.855C426.918 117.033 426.36 117.219 426.36 121.281C426.36 127.235 430.36 134.583 430.391 134.676C430.546 134.987 430.577 135.359 430.422 135.669C430.298 135.886 419.476 157.932 416.933 170.119C416.84 170.615 416.406 170.956 415.879 170.956Z" fill="#1C2433"/>
<path d="M29.4881 268.32C28.806 268.32 28.2168 268.165 27.7517 267.793C26.6974 266.956 26.6664 265.406 27.7207 263.669C30.4494 259.08 34.5114 248.103 35.5657 245.158C33.9533 243.762 30.9145 240.351 28.0618 236.692C27.6897 236.227 27.7827 235.545 28.2478 235.173C28.7129 234.801 29.3951 234.894 29.7672 235.359C34.0463 240.816 36.868 243.514 37.3331 243.824C37.8293 244.072 38.0463 244.63 37.8603 245.158C37.6432 245.747 32.806 259.328 29.5812 264.786C29.116 265.561 29.116 265.995 29.147 266.119C29.4261 266.212 33.7052 267.08 50.8216 251.049C51.1007 250.801 51.4728 250.708 51.8449 250.801C58.1395 252.475 64.279 253.871 70.1085 254.956C70.6977 255.049 71.1008 255.638 70.9767 256.227C70.8527 256.816 70.2946 257.22 69.7054 257.096C63.9999 256.041 57.9844 254.708 51.8449 253.065C45.2092 259.204 34.5734 268.32 29.4881 268.32ZM37.2401 243.762C37.2711 243.762 37.2711 243.793 37.3021 243.793C37.2711 243.793 37.2711 243.762 37.2401 243.762Z" fill="#D8C5FC"/>
<path d="M28.6515 237.623C28.4964 237.623 28.3414 237.592 28.1864 237.53C27.6592 237.282 27.4112 236.63 27.6592 236.072C45.5508 198.522 45.3337 166.77 45.0857 160.754C45.0857 160.754 45.0547 160.754 45.0237 160.754C37.7058 160.754 32.0313 158.087 29.7368 153.56C28.2484 150.614 28.4654 147.359 30.3259 145.033C32.4034 142.428 36.0314 141.529 40.2794 142.552C40.8686 142.707 41.2097 143.297 41.0857 143.855C40.9306 144.444 40.3415 144.785 39.7833 144.661C36.4035 143.824 33.5817 144.444 32.0623 146.366C30.76 148.01 30.605 150.397 31.7213 152.568C33.7368 156.568 39.1322 158.8 46.1089 158.552C46.6981 158.521 47.1942 158.987 47.2252 159.545C47.2562 159.917 47.8764 168.475 46.0159 182.366C44.3105 195.173 40.0934 215.018 29.6127 237.002C29.4267 237.406 29.0546 237.623 28.6515 237.623Z" fill="#1C2433"/>
<path d="M69.8916 257.065C69.8296 257.065 69.7676 257.065 69.7055 257.065C69.1164 256.972 68.7133 256.414 68.8063 255.825C68.9303 255.049 71.8761 237.034 74.9459 231.111C75.225 230.584 75.8761 230.367 76.4033 230.646C76.9304 230.925 77.1474 231.576 76.8684 232.104C73.9536 237.747 70.9769 256.011 70.9459 256.166C70.8838 256.693 70.4187 257.065 69.8916 257.065Z" fill="#1C2433"/>
</svg>
