<svg width="56" height="56" viewBox="0 0 56 56" fill="none" xmlns="http://www.w3.org/2000/svg">
<path d="M46.1997 45.4998C41.2997 49.1165 33.9497 51.3332 27.9997 51.3332C19.483 51.3332 11.8997 47.9498 6.06635 42.6998C5.59968 42.2332 6.06635 41.7665 6.53301 41.9998C12.833 45.6165 19.9497 47.7165 27.883 47.7165C33.2497 47.7165 40.0163 46.5498 45.4997 44.2165C46.3163 43.9832 47.0163 44.9165 46.1997 45.4998ZM47.9497 43.0498C47.3663 42.2332 43.8663 42.6998 42.3497 42.8165C41.883 42.8165 41.7663 42.4665 42.233 42.1165C44.9163 40.1332 49.4663 40.7165 49.933 41.4165C50.3997 42.1165 49.8163 46.6665 47.2497 48.7665C46.8997 49.1165 46.433 48.8832 46.6663 48.5332C47.2497 47.1332 48.533 43.8665 47.9497 43.0498Z" fill="#FFB300"/>
<path d="M43.0505 34.7663C41.8839 33.2497 40.7172 31.9663 40.7172 29.0497V19.3663C40.7172 15.283 40.7172 11.6663 37.8005 8.86634C35.4672 6.64967 31.6172 5.83301 28.5839 5.83301C22.1672 5.83301 16.5672 8.39967 15.1672 15.633C15.0505 16.4497 15.6339 16.7997 16.1005 16.9163L22.0505 17.6163C22.6339 17.6163 22.9839 17.033 23.1005 16.4497C23.5672 13.9997 25.5505 12.833 27.8839 12.833C29.1672 12.833 31.6172 13.533 31.6172 16.333V19.833C27.8839 19.833 23.9172 19.833 20.6505 21.233C16.8005 22.8663 14.1172 26.2497 14.1172 31.2663C14.1172 37.683 18.0839 40.833 23.2172 40.833C27.5339 40.833 30.1005 39.783 33.4839 36.3997C34.5339 38.033 35.0005 38.9663 36.9839 40.7163C37.4505 40.9497 38.0339 40.9497 38.3839 40.5997C39.5505 39.5497 41.7672 37.5663 43.0505 36.5163C43.6339 36.0497 43.5172 35.3497 43.0505 34.7663ZM31.5005 25.783C31.5005 28.1163 31.3839 33.833 25.6672 33.833C22.1672 33.833 22.1672 30.333 22.1672 30.333C22.1672 25.083 27.0672 24.4997 31.5005 24.4997V25.783Z" fill="#37474F"/>
</svg>
