<svg width="114" height="41" viewBox="0 0 114 41" fill="none" xmlns="http://www.w3.org/2000/svg">
<path d="M8.84679 16.4357C6.40471 16.4357 4.32846 18.2105 3.95951 20.6134L2.56788 29.6768C2.29339 31.4646 3.68336 33.0757 5.50025 33.0757H8.56828L10.3827 22.7812C17.0625 22.7812 23.7029 22.0059 25.3656 16.4357H8.84679Z" fill="#7936F4"/>
<path d="M4.93555 15.2227C4.93555 15.2227 6.06423 14.1301 7.49725 13.667C8.76914 13.2559 10.2687 13.2874 10.2687 13.2874H25.8224C25.7106 9.81199 23.1529 7.4577 18.2916 7.4577H8.57524C7.08898 7.4577 5.83213 8.55252 5.63503 10.0189L4.93555 15.2227Z" fill="#C5AEF1"/>
<path d="M29.1328 24.4293L31.2761 9.991H40.8362L40.4573 12.4273H33.8082L33.2798 16.0519H39.0318L38.6729 18.4383H32.9209L32.0437 24.4293H29.1328Z" fill="#1A1A1A"/>
<path d="M44.7028 24.629C43.7258 24.629 42.9051 24.4126 42.2405 23.98C41.5759 23.5473 41.1007 22.9349 40.815 22.1427C40.5292 21.3506 40.4661 20.412 40.6256 19.327C40.7784 18.2419 41.114 17.2934 41.6324 16.4812C42.1508 15.6691 42.8087 15.0367 43.6062 14.5841C44.4037 14.1314 45.2943 13.9051 46.2779 13.9051C47.2747 13.9051 48.1021 14.1281 48.7601 14.5741C49.418 15.0134 49.8865 15.6392 50.1657 16.4513C50.4448 17.2634 50.5046 18.222 50.3451 19.327C50.1923 20.3654 49.8633 21.284 49.3582 22.0828C48.8598 22.875 48.2151 23.4974 47.4243 23.95C46.6401 24.4027 45.7329 24.629 44.7028 24.629ZM45.0617 22.4622C45.5468 22.4622 45.9589 22.3125 46.2978 22.0129C46.6367 21.7134 46.9092 21.3206 47.1152 20.8347C47.3279 20.3421 47.4708 19.8062 47.5439 19.2271C47.6236 18.6813 47.6336 18.1654 47.5738 17.6794C47.5206 17.1935 47.3678 16.8008 47.1152 16.5012C46.8627 16.2017 46.4772 16.0519 45.9589 16.0519C45.4604 16.0519 45.0384 16.195 44.6928 16.4812C44.3472 16.7608 44.0714 17.1436 43.8654 17.6295C43.666 18.1088 43.5265 18.6413 43.4467 19.2271C43.3736 19.7663 43.3636 20.2855 43.4168 20.7848C43.4766 21.2774 43.6328 21.6801 43.8853 21.993C44.1379 22.3058 44.53 22.4622 45.0617 22.4622Z" fill="#1A1A1A"/>
<path d="M51.5836 24.4293L53.039 14.1048H55.8203L55.4814 16.5511C55.714 16.0253 56.0064 15.5659 56.3586 15.1732C56.7108 14.7738 57.1129 14.4643 57.5648 14.2446C58.0168 14.0183 58.5119 13.9051 59.0502 13.9051C59.1432 13.9051 59.2263 13.9118 59.2994 13.9251C59.3792 13.9317 59.4356 13.9451 59.4689 13.965L59.0701 16.7408C59.0236 16.7142 58.9605 16.6976 58.8807 16.6909C58.8076 16.6843 58.7378 16.6776 58.6714 16.671C57.927 16.6044 57.3156 16.6543 56.8371 16.8207C56.3586 16.9805 55.9931 17.2334 55.7406 17.5796C55.4947 17.9191 55.3385 18.3185 55.272 18.7778L54.4845 24.4293H51.5836Z" fill="#1A1A1A"/>
<path d="M59.6053 24.4293L61.1305 14.1048H63.9417L63.7424 15.4328C64.1079 15.0068 64.5664 14.6473 65.1181 14.3544C65.6697 14.0549 66.3376 13.9051 67.1218 13.9051C67.6335 13.9051 68.1386 14.0249 68.637 14.2646C69.1421 14.4976 69.4977 14.887 69.7037 15.4328C70.1224 14.9602 70.6308 14.5874 71.2289 14.3145C71.827 14.0416 72.4119 13.9051 72.9834 13.9051C73.3556 13.9051 73.7244 13.9717 74.0899 14.1048C74.4555 14.2313 74.7778 14.431 75.0569 14.7039C75.3427 14.9768 75.5487 15.333 75.675 15.7723C75.8079 16.205 75.8278 16.7275 75.7348 17.3399L74.6881 24.4293H71.8071L72.8239 17.6595C72.8837 17.2601 72.8538 16.9439 72.7342 16.7109C72.6146 16.4713 72.4451 16.2982 72.2258 16.1917C72.0065 16.0852 71.7639 16.0319 71.4981 16.0319C71.1325 16.0319 70.8135 16.1018 70.5411 16.2416C70.2686 16.3747 70.0459 16.5811 69.8732 16.8607C69.707 17.1402 69.5907 17.4964 69.5242 17.9291L68.5672 24.4293H65.6962L66.733 17.3999C66.7862 17.107 66.7463 16.8607 66.6134 16.661C66.4871 16.4546 66.311 16.2982 66.085 16.1917C65.8591 16.0852 65.6231 16.0319 65.3772 16.0319C65.1247 16.0319 64.8622 16.0852 64.5897 16.1917C64.3239 16.2982 64.0879 16.4613 63.8819 16.6809C63.6825 16.894 63.5596 17.1669 63.5131 17.4997L62.4664 24.4293H59.6053Z" fill="#1A1A1A"/>
<path d="M77.4775 24.4293L79.6207 9.991H84.7945C85.8113 9.991 86.6952 10.1741 87.4462 10.5402C88.2039 10.8996 88.7654 11.4322 89.1309 12.1378C89.4965 12.8434 89.6028 13.7054 89.4499 14.7239C89.3104 15.6824 88.9814 16.5012 88.463 17.1802C87.9513 17.8592 87.2967 18.3784 86.4992 18.7378C85.7017 19.0973 84.7979 19.277 83.7877 19.277H81.1559L80.3883 24.4293H77.4775ZM81.455 17.0204H84.0469C84.5121 17.0204 84.9407 16.9139 85.3328 16.7009C85.7249 16.4879 86.0473 16.1983 86.2998 15.8322C86.559 15.4594 86.7218 15.0401 86.7883 14.5741C86.888 13.8552 86.7351 13.286 86.3297 12.8667C85.9243 12.4406 85.3827 12.2276 84.7048 12.2276H82.1628L81.455 17.0204Z" fill="#1A1A1A"/>
<path d="M92.5284 24.629C91.8838 24.629 91.3222 24.5058 90.8437 24.2595C90.3719 24.0132 90.0229 23.6571 89.797 23.1912C89.571 22.7185 89.5012 22.1461 89.5876 21.4737C89.7604 20.3421 90.3021 19.4834 91.2126 18.8976C92.123 18.3052 93.4655 17.999 95.2399 17.979L96.4761 17.959L96.5658 17.3399C96.6389 16.854 96.5458 16.4879 96.2867 16.2416C96.0341 15.9886 95.6553 15.8655 95.1502 15.8722C94.7448 15.8788 94.3394 15.982 93.934 16.1817C93.5286 16.3814 93.2196 16.7142 93.0069 17.1802H90.6244C90.7706 16.4679 91.073 15.8688 91.5316 15.3829C91.9968 14.897 92.5783 14.5308 93.2761 14.2845C93.9739 14.0316 94.7415 13.9051 95.5789 13.9051C96.6023 13.9051 97.4032 14.0416 97.9813 14.3145C98.5662 14.5874 98.9616 14.9702 99.1676 15.4628C99.3803 15.9487 99.4401 16.5179 99.3471 17.1702L98.2704 24.4293H95.868L95.8879 22.6819C95.4293 23.4275 94.9276 23.94 94.3826 24.2196C93.8377 24.4925 93.2196 24.629 92.5284 24.629ZM93.7745 22.7119C94.0271 22.7119 94.2763 22.6653 94.5222 22.5721C94.7747 22.4722 95.0073 22.3424 95.22 22.1827C95.4327 22.0163 95.6088 21.8299 95.7483 21.6235C95.8946 21.4172 95.9876 21.2041 96.0275 20.9845L96.2468 19.4568L95.2499 19.4767C94.7913 19.4834 94.3527 19.5433 93.934 19.6565C93.522 19.763 93.1731 19.9394 92.8873 20.1857C92.6015 20.432 92.4254 20.7648 92.359 21.1842C92.2991 21.6634 92.4055 22.0395 92.678 22.3125C92.9504 22.5787 93.316 22.7119 93.7745 22.7119Z" fill="#1A1A1A"/>
<path d="M101.567 27.7243C100.883 27.7243 100.404 27.6644 100.132 27.5446C99.8658 27.4314 99.7329 27.3749 99.7329 27.3749L100.002 25.5177L100.999 25.5576C101.577 25.5909 102.016 25.5443 102.315 25.4178C102.614 25.298 102.823 25.1515 102.943 24.9785C103.069 24.8054 103.159 24.6689 103.212 24.5691L103.481 23.9999L101.039 14.1048H103.89L105.266 20.8347L108.655 14.1048H111.466L105.904 24.4892C105.418 25.3679 104.943 26.0402 104.478 26.5062C104.013 26.9721 103.541 27.2917 103.062 27.4647C102.591 27.6378 102.092 27.7243 101.567 27.7243Z" fill="#1A1A1A"/>
<path d="M31.2355 33.421C31.0434 33.421 30.8808 33.3957 30.7478 33.345C30.6169 33.2944 30.5093 33.23 30.4248 33.1519C30.3404 33.0716 30.2749 32.9904 30.2285 32.908C30.182 32.8236 30.1483 32.7497 30.1271 32.6864L30.0638 33.3577H29.6173V28.652H30.2063V30.6027C30.2338 30.5478 30.2749 30.4876 30.3298 30.4222C30.3868 30.3568 30.4596 30.2934 30.5483 30.2322C30.637 30.171 30.7415 30.1203 30.8618 30.0802C30.9843 30.0401 31.1236 30.02 31.2798 30.02C31.6894 30.02 32.0145 30.1625 32.2551 30.4475C32.4979 30.7325 32.6193 31.1526 32.6193 31.7079C32.6193 32.052 32.5676 32.3528 32.4641 32.6104C32.3607 32.8658 32.2066 33.0653 32.0018 33.2089C31.797 33.3503 31.5416 33.421 31.2355 33.421ZM31.131 32.9714C31.397 32.9714 31.6134 32.869 31.7801 32.6642C31.9469 32.4573 32.0303 32.129 32.0303 31.6794C32.0303 31.2973 31.9522 31.0017 31.796 30.7927C31.6419 30.5816 31.416 30.476 31.1183 30.476C30.9009 30.476 30.7256 30.5235 30.5926 30.6185C30.4618 30.7114 30.3646 30.8476 30.3013 31.027C30.2401 31.2065 30.2084 31.4239 30.2063 31.6794C30.2063 32.1375 30.277 32.4679 30.4185 32.6705C30.562 32.8711 30.7995 32.9714 31.131 32.9714ZM33.5894 34.4027C33.3973 34.4027 33.2653 34.389 33.1936 34.3615C33.1218 34.3341 33.0859 34.3204 33.0859 34.3204V33.9404L33.4184 33.9467C33.5408 33.9509 33.6422 33.9425 33.7224 33.9214C33.8026 33.9003 33.867 33.8718 33.9156 33.8359C33.9641 33.8 34.0011 33.7599 34.0264 33.7155C34.0538 33.6712 34.076 33.629 34.0929 33.5889L34.2069 33.2785L32.9276 30.0834H33.5197L34.4856 32.6104L35.4451 30.0834H36.0182L34.6376 33.6047C34.5531 33.8116 34.4581 33.9731 34.3526 34.0892C34.2491 34.2053 34.133 34.2866 34.0042 34.333C33.8776 34.3795 33.7393 34.4027 33.5894 34.4027ZM38.1986 33.3577V28.7787H39.0093L40.3899 32.5597L41.7896 28.7787H42.5971V33.3577H41.9923V29.6559L40.6654 33.3577H40.1176L38.8003 29.6907V33.3577H38.1986ZM44.5751 33.421C44.364 33.421 44.1771 33.3841 44.0146 33.3102C43.852 33.2342 43.7243 33.1255 43.6314 32.984C43.5406 32.8426 43.4952 32.6716 43.4952 32.471C43.4952 32.1079 43.6219 31.8377 43.8752 31.6604C44.1286 31.483 44.535 31.388 45.0944 31.3754L45.6802 31.3595V31.103C45.6802 30.9025 45.6201 30.7441 45.4997 30.628C45.3794 30.5098 45.1926 30.4507 44.9392 30.4507C44.7513 30.4528 44.5856 30.4971 44.4421 30.5837C44.3006 30.6703 44.2088 30.8117 44.1666 31.008H43.6504C43.6631 30.7948 43.7232 30.6154 43.8309 30.4697C43.9386 30.3219 44.0885 30.21 44.2806 30.134C44.4748 30.058 44.7038 30.02 44.9677 30.02C45.2527 30.02 45.4892 30.0601 45.6771 30.1404C45.8671 30.2206 46.0085 30.3388 46.1014 30.495C46.1964 30.6513 46.2439 30.8434 46.2439 31.0714V33.3577H45.7436L45.7024 32.7434C45.5757 32.9988 45.4142 33.1761 45.2179 33.2754C45.0237 33.3725 44.8094 33.421 44.5751 33.421ZM44.7524 32.9999C44.8622 32.9999 44.9709 32.9798 45.0786 32.9397C45.1883 32.8996 45.2886 32.8458 45.3794 32.7782C45.4702 32.7085 45.542 32.6315 45.5947 32.547C45.6496 32.4605 45.6781 32.3718 45.6802 32.281V31.7205L45.1926 31.73C44.9435 31.7343 44.7345 31.7596 44.5656 31.806C44.3988 31.8525 44.2732 31.9253 44.1887 32.0245C44.1064 32.1238 44.0652 32.2536 44.0652 32.414C44.0652 32.5977 44.1286 32.7413 44.2552 32.8447C44.384 32.9481 44.5497 32.9999 44.7524 32.9999ZM50.1196 33.3577H49.4989L48.4729 31.7142L47.8269 32.3824V33.3577H47.2443V28.652H47.8269V31.7205L49.3659 30.0834H50.0373L48.8561 31.331L50.1196 33.3577ZM51.0887 31.8567C51.0887 32.0636 51.1225 32.2515 51.19 32.4204C51.2597 32.5871 51.3642 32.7201 51.5035 32.8194C51.645 32.9186 51.8213 32.9682 52.0324 32.9682C52.2414 32.9682 52.4208 32.9196 52.5707 32.8225C52.7227 32.7254 52.8198 32.585 52.862 32.4014H53.4162C53.3761 32.623 53.2874 32.8099 53.1502 32.9619C53.013 33.1139 52.8473 33.2289 52.653 33.307C52.4588 33.383 52.2561 33.421 52.045 33.421C51.7389 33.421 51.4698 33.3545 51.2375 33.2215C51.0053 33.0885 50.8238 32.8975 50.6929 32.6484C50.562 32.3993 50.4965 32.1005 50.4965 31.7522C50.4965 31.4081 50.5556 31.1062 50.6739 30.8465C50.7921 30.5869 50.9631 30.3842 51.1869 30.2385C51.4128 30.0929 51.684 30.02 52.0007 30.02C52.3089 30.02 52.5696 30.0865 52.7829 30.2195C52.9961 30.3525 53.1576 30.5404 53.2674 30.7832C53.3793 31.0239 53.4352 31.3099 53.4352 31.6414V31.8567H51.0887ZM51.0919 31.4609H52.8715C52.8715 31.273 52.8399 31.1041 52.7765 30.9542C52.7132 30.8022 52.6161 30.6829 52.4852 30.5964C52.3564 30.5077 52.1939 30.4634 51.9975 30.4634C51.7928 30.4634 51.6228 30.513 51.4877 30.6122C51.3547 30.7093 51.2544 30.8349 51.1869 30.989C51.1214 31.141 51.0898 31.2983 51.0919 31.4609ZM59.3697 28.7787L58.0334 33.3577H57.4919L56.4881 29.8079L55.4684 33.3577H54.9427L53.6222 28.7787H54.2144L55.2277 32.4235L56.2601 28.7787H56.7192L57.7484 32.4235L58.7807 28.7787H59.3697ZM60.1372 31.8567C60.1372 32.0636 60.171 32.2515 60.2385 32.4204C60.3082 32.5871 60.4127 32.7201 60.552 32.8194C60.6935 32.9186 60.8698 32.9682 61.0809 32.9682C61.2899 32.9682 61.4693 32.9196 61.6192 32.8225C61.7712 32.7254 61.8683 32.585 61.9105 32.4014H62.4647C62.4246 32.623 62.3359 32.8099 62.1987 32.9619C62.0615 33.1139 61.8958 33.2289 61.7015 33.307C61.5073 33.383 61.3046 33.421 61.0935 33.421C60.7874 33.421 60.5183 33.3545 60.286 33.2215C60.0538 33.0885 59.8723 32.8975 59.7414 32.6484C59.6105 32.3993 59.545 32.1005 59.545 31.7522C59.545 31.4081 59.6041 31.1062 59.7224 30.8465C59.8406 30.5869 60.0116 30.3842 60.2354 30.2385C60.4613 30.0929 60.7325 30.02 61.0492 30.02C61.3574 30.02 61.6181 30.0865 61.8314 30.2195C62.0446 30.3525 62.2061 30.5404 62.3159 30.7832C62.4278 31.0239 62.4837 31.3099 62.4837 31.6414V31.8567H60.1372ZM60.1404 31.4609H61.92C61.92 31.273 61.8884 31.1041 61.825 30.9542C61.7617 30.8022 61.6646 30.6829 61.5337 30.5964C61.4049 30.5077 61.2424 30.4634 61.046 30.4634C60.8413 30.4634 60.6713 30.513 60.5362 30.6122C60.4032 30.7093 60.3029 30.8349 60.2354 30.989C60.1699 31.141 60.1383 31.2983 60.1404 31.4609ZM64.9061 33.421C64.7139 33.421 64.5514 33.3957 64.4184 33.345C64.2875 33.2944 64.1798 33.23 64.0954 33.1519C64.0109 33.0716 63.9455 32.9904 63.8991 32.908C63.8526 32.8236 63.8188 32.7497 63.7977 32.6864L63.7344 33.3577H63.2879V28.652H63.8769V30.6027C63.9043 30.5478 63.9455 30.4876 64.0004 30.4222C64.0574 30.3568 64.1302 30.2934 64.2189 30.2322C64.3076 30.171 64.4121 30.1203 64.5324 30.0802C64.6548 30.0401 64.7942 30.02 64.9504 30.02C65.3599 30.02 65.6851 30.1625 65.9257 30.4475C66.1685 30.7325 66.2899 31.1526 66.2899 31.7079C66.2899 32.052 66.2382 32.3528 66.1347 32.6104C66.0313 32.8658 65.8772 33.0653 65.6724 33.2089C65.4676 33.3503 65.2122 33.421 64.9061 33.421ZM64.8016 32.9714C65.0676 32.9714 65.2839 32.869 65.4507 32.6642C65.6175 32.4573 65.7009 32.129 65.7009 31.6794C65.7009 31.2973 65.6228 31.0017 65.4666 30.7927C65.3124 30.5816 65.0866 30.476 64.7889 30.476C64.5714 30.476 64.3962 30.5235 64.2632 30.6185C64.1323 30.7114 64.0352 30.8476 63.9719 31.027C63.9107 31.2065 63.879 31.4239 63.8769 31.6794C63.8769 32.1375 63.9476 32.4679 64.0891 32.6705C64.2326 32.8711 64.4701 32.9714 64.8016 32.9714ZM67.2119 33.3577V28.7787H68.6844C69.2418 28.7787 69.6629 28.8811 69.9479 29.0859C70.235 29.2906 70.3786 29.5862 70.3786 29.9725C70.3786 30.2153 70.3153 30.4233 70.1886 30.5964C70.064 30.7695 69.8445 30.912 69.5299 31.0239C69.7094 31.0619 69.8603 31.1168 69.9828 31.1885C70.1073 31.2603 70.2065 31.3448 70.2804 31.4419C70.3564 31.5369 70.4103 31.6424 70.4419 31.7585C70.4757 31.8746 70.4926 31.9971 70.4926 32.1259C70.4926 32.5396 70.3448 32.8489 70.0493 33.0537C69.7558 33.2564 69.3167 33.3577 68.7319 33.3577H67.2119ZM67.7978 32.87H68.7256C69.1077 32.87 69.398 32.8078 69.5964 32.6832C69.797 32.5565 69.8973 32.3623 69.8973 32.1005C69.8973 31.9084 69.8477 31.7533 69.7484 31.635C69.6513 31.5147 69.5194 31.4271 69.3526 31.3722C69.1858 31.3173 69 31.2899 68.7953 31.2899H67.7978V32.87ZM67.7978 30.7927H68.7953C68.9156 30.7927 69.0349 30.7811 69.1531 30.7579C69.2713 30.7346 69.38 30.6945 69.4793 30.6375C69.5785 30.5805 69.6587 30.5045 69.7199 30.4095C69.7812 30.3124 69.8118 30.191 69.8118 30.0454C69.8118 29.7794 69.7094 29.583 69.5046 29.4564C69.3019 29.3276 69.038 29.2632 68.7129 29.2632H67.7978V30.7927ZM71.7834 31.8567C71.7834 32.0636 71.8171 32.2515 71.8847 32.4204C71.9544 32.5871 72.0589 32.7201 72.1982 32.8194C72.3396 32.9186 72.5159 32.9682 72.727 32.9682C72.936 32.9682 73.1155 32.9196 73.2654 32.8225C73.4174 32.7254 73.5145 32.585 73.5567 32.4014H74.1109C74.0708 32.623 73.9821 32.8099 73.8449 32.9619C73.7076 33.1139 73.5419 33.2289 73.3477 33.307C73.1535 33.383 72.9508 33.421 72.7397 33.421C72.4336 33.421 72.1644 33.3545 71.9322 33.2215C71.7 33.0885 71.5184 32.8975 71.3875 32.6484C71.2566 32.3993 71.1912 32.1005 71.1912 31.7522C71.1912 31.4081 71.2503 31.1062 71.3685 30.8465C71.4868 30.5869 71.6578 30.3842 71.8815 30.2385C72.1074 30.0929 72.3787 30.02 72.6954 30.02C73.0036 30.02 73.2643 30.0865 73.4775 30.2195C73.6908 30.3525 73.8523 30.5404 73.962 30.7832C74.0739 31.0239 74.1299 31.3099 74.1299 31.6414V31.8567H71.7834ZM71.7865 31.4609H73.5662C73.5662 31.273 73.5345 31.1041 73.4712 30.9542C73.4079 30.8022 73.3108 30.6829 73.1799 30.5964C73.0511 30.5077 72.8885 30.4634 72.6922 30.4634C72.4874 30.4634 72.3175 30.513 72.1824 30.6122C72.0494 30.7093 71.9491 30.8349 71.8815 30.989C71.8161 31.141 71.7844 31.2983 71.7865 31.4609ZM76.4924 30.5109H75.7546V32.547C75.7546 32.6631 75.7662 32.7486 75.7894 32.8035C75.8148 32.8563 75.8559 32.8901 75.9129 32.9049C75.9721 32.9196 76.0523 32.927 76.1536 32.927H76.5114V33.3197C76.4713 33.3345 76.4101 33.3471 76.3278 33.3577C76.2476 33.3683 76.1473 33.3735 76.0269 33.3735C75.8011 33.3735 75.6258 33.3429 75.5013 33.2817C75.3767 33.2205 75.2891 33.1297 75.2384 33.0094C75.1899 32.889 75.1656 32.7413 75.1656 32.566V30.5109H74.6336V30.0834H75.1814L75.3239 29.1302H75.7546V30.0802H76.4924V30.5109ZM78.9602 30.5109H78.2224V32.547C78.2224 32.6631 78.234 32.7486 78.2572 32.8035C78.2826 32.8563 78.3237 32.8901 78.3807 32.9049C78.4398 32.9196 78.5201 32.927 78.6214 32.927H78.9792V33.3197C78.9391 33.3345 78.8779 33.3471 78.7956 33.3577C78.7153 33.3683 78.6151 33.3735 78.4947 33.3735C78.2688 33.3735 78.0936 33.3429 77.9691 33.2817C77.8445 33.2205 77.7569 33.1297 77.7062 33.0094C77.6577 32.889 77.6334 32.7413 77.6334 32.566V30.5109H77.1014V30.0834H77.6492L77.7917 29.1302H78.2224V30.0802H78.9602V30.5109ZM80.133 31.8567C80.133 32.0636 80.1668 32.2515 80.2343 32.4204C80.304 32.5871 80.4085 32.7201 80.5478 32.8194C80.6893 32.9186 80.8655 32.9682 81.0766 32.9682C81.2856 32.9682 81.4651 32.9196 81.615 32.8225C81.767 32.7254 81.8641 32.585 81.9063 32.4014H82.4605C82.4204 32.623 82.3317 32.8099 82.1945 32.9619C82.0573 33.1139 81.8915 33.2289 81.6973 33.307C81.5031 33.383 81.3004 33.421 81.0893 33.421C80.7832 33.421 80.514 33.3545 80.2818 33.2215C80.0496 33.0885 79.868 32.8975 79.7371 32.6484C79.6063 32.3993 79.5408 32.1005 79.5408 31.7522C79.5408 31.4081 79.5999 31.1062 79.7181 30.8465C79.8364 30.5869 80.0074 30.3842 80.2311 30.2385C80.457 30.0929 80.7283 30.02 81.045 30.02C81.3532 30.02 81.6139 30.0865 81.8271 30.2195C82.0404 30.3525 82.2019 30.5404 82.3116 30.7832C82.4235 31.0239 82.4795 31.3099 82.4795 31.6414V31.8567H80.133ZM80.1361 31.4609H81.9158C81.9158 31.273 81.8841 31.1041 81.8208 30.9542C81.7575 30.8022 81.6604 30.6829 81.5295 30.5964C81.4007 30.5077 81.2381 30.4634 81.0418 30.4634C80.837 30.4634 80.6671 30.513 80.532 30.6122C80.399 30.7093 80.2987 30.8349 80.2311 30.989C80.1657 31.141 80.134 31.2983 80.1361 31.4609ZM83.2837 33.3577V30.0834H83.841V30.7135C83.8959 30.5573 83.9729 30.4285 84.0722 30.3272C84.1714 30.2238 84.2843 30.1467 84.411 30.096C84.5398 30.0454 84.6728 30.02 84.81 30.02C84.8585 30.02 84.906 30.0232 84.9525 30.0295C84.9989 30.0359 85.0348 30.0464 85.0602 30.0612V30.628C85.0285 30.6133 84.9873 30.6038 84.9367 30.5995C84.8881 30.5932 84.8469 30.59 84.8132 30.59C84.6823 30.5816 84.5598 30.59 84.4458 30.6154C84.3318 30.6386 84.2315 30.6798 84.145 30.7389C84.0584 30.798 83.9898 30.8761 83.9392 30.9732C83.8906 31.0682 83.8663 31.1843 83.8663 31.3215V33.3577H83.2837Z" fill="#919EAB"/>
</svg>
