<svg width="169" height="61" viewBox="0 0 169 61" fill="none" xmlns="http://www.w3.org/2000/svg">
<path d="M13.1155 24.3633C9.4952 24.3633 6.41725 26.9944 5.8703 30.5566L3.80727 43.9927C3.40034 46.643 5.46091 49.0314 8.15437 49.0314H12.7026L15.3924 33.7703C25.2949 33.7703 35.139 32.6208 37.6039 24.3633H13.1155Z" fill="#7936F4"/>
<path d="M7.31641 22.5659C7.31641 22.5659 8.98964 20.9462 11.114 20.2597C12.9995 19.6503 15.2226 19.6969 15.2226 19.6969H38.2803C38.1145 14.5448 34.3229 11.0547 27.1162 11.0547H12.7121C10.5088 11.0547 8.64555 12.6777 8.35335 14.8515L7.31641 22.5659Z" fill="#C5AEF1"/>
<path d="M43.1895 36.2147L46.3668 14.8105H60.5391L59.9776 18.4223H50.1205L49.3372 23.7955H57.8643L57.3323 27.3333H48.8052L47.5047 36.2147H43.1895Z" fill="white"/>
<path d="M66.2713 36.5107C64.823 36.5107 63.6062 36.19 62.621 35.5486C61.6358 34.9071 60.9314 33.9993 60.5077 32.825C60.0841 31.6506 59.9905 30.2592 60.2269 28.6507C60.4535 27.0422 60.9511 25.636 61.7196 24.432C62.488 23.2281 63.4634 22.2906 64.6456 21.6196C65.8279 20.9486 67.1481 20.6131 68.6062 20.6131C70.0841 20.6131 71.3106 20.9436 72.286 21.6048C73.2614 22.2561 73.956 23.1837 74.3697 24.3876C74.7835 25.5916 74.8722 27.0126 74.6358 28.6507C74.4092 30.1901 73.9215 31.552 73.1727 32.7361C72.4338 33.9105 71.4781 34.8331 70.3057 35.5042C69.1432 36.1752 67.7983 36.5107 66.2713 36.5107ZM66.8033 33.2986C67.5225 33.2986 68.1333 33.0766 68.6358 32.6325C69.1382 32.1885 69.5422 31.6062 69.8476 30.8859C70.1629 30.1556 70.3747 29.3612 70.4831 28.5027C70.6013 27.6935 70.6161 26.9287 70.5274 26.2083C70.4486 25.4879 70.222 24.9057 69.8476 24.4617C69.4732 24.0176 68.9018 23.7955 68.1333 23.7955C67.3944 23.7955 66.7688 24.0077 66.2565 24.432C65.7442 24.8465 65.3353 25.4139 65.0299 26.1343C64.7343 26.8448 64.5274 27.6343 64.4092 28.5027C64.3008 29.302 64.286 30.0717 64.3649 30.8118C64.4535 31.5421 64.6851 32.1391 65.0594 32.6029C65.4338 33.0667 66.0151 33.2986 66.8033 33.2986Z" fill="white"/>
<path d="M76.4717 36.2147L78.6294 20.9091H82.7525L82.25 24.5357C82.5949 23.7561 83.0283 23.0752 83.5505 22.4929C84.0727 21.9009 84.6687 21.442 85.3387 21.1163C86.0086 20.7808 86.7426 20.6131 87.5406 20.6131C87.6786 20.6131 87.8017 20.6229 87.9101 20.6427C88.0283 20.6525 88.1121 20.6723 88.1613 20.7019L87.5702 24.8169C87.5012 24.7774 87.4076 24.7528 87.2894 24.7429C87.181 24.733 87.0776 24.7232 86.9791 24.7133C85.8756 24.6146 84.9692 24.6886 84.2599 24.9353C83.5505 25.1722 83.0086 25.5472 82.6343 26.0603C82.2697 26.5636 82.0382 27.1557 81.9397 27.8366L80.7722 36.2147H76.4717Z" fill="white"/>
<path d="M88.3636 36.2147L90.6247 20.9091H94.7922L94.4966 22.8778C95.0385 22.2462 95.7183 21.7134 96.536 21.2792C97.3537 20.8351 98.3439 20.6131 99.5064 20.6131C100.265 20.6131 101.014 20.7907 101.753 21.1459C102.501 21.4913 103.029 22.0686 103.334 22.8778C103.955 22.1772 104.708 21.6245 105.595 21.2199C106.482 20.8154 107.349 20.6131 108.196 20.6131C108.748 20.6131 109.295 20.7117 109.836 20.9091C110.378 21.0966 110.856 21.3926 111.27 21.7972C111.694 22.2018 111.999 22.7298 112.186 23.3811C112.383 24.0225 112.413 24.7972 112.275 25.705L110.723 36.2147H106.452L107.96 26.1787C108.048 25.5866 108.004 25.1179 107.827 24.7725C107.649 24.4172 107.398 24.1607 107.073 24.0028C106.748 23.8449 106.388 23.7659 105.994 23.7659C105.452 23.7659 104.979 23.8696 104.575 24.0768C104.171 24.2742 103.841 24.5801 103.585 24.9945C103.339 25.409 103.167 25.9369 103.068 26.5784L101.649 36.2147H97.3931L98.9301 25.7939C99.0089 25.3597 98.9498 24.9945 98.7527 24.6985C98.5655 24.3926 98.3045 24.1607 97.9695 24.0028C97.6345 23.8449 97.2848 23.7659 96.9202 23.7659C96.5458 23.7659 96.1567 23.8449 95.7527 24.0028C95.3587 24.1607 95.0089 24.4024 94.7035 24.7281C94.4079 25.0439 94.2257 25.4485 94.1567 25.9419L92.605 36.2147H88.3636Z" fill="white"/>
<path d="M114.858 36.2147L118.036 14.8105H125.706C127.213 14.8105 128.523 15.0819 129.637 15.6247C130.76 16.1576 131.592 16.947 132.134 17.993C132.676 19.0391 132.834 20.317 132.607 21.8268C132.4 23.2479 131.912 24.4616 131.144 25.4682C130.385 26.4748 129.415 27.2445 128.233 27.7774C127.05 28.3103 125.71 28.5767 124.213 28.5767H120.311L119.174 36.2147H114.858ZM120.755 25.2314H124.597C125.287 25.2314 125.922 25.0735 126.504 24.7577C127.085 24.4419 127.563 24.0126 127.937 23.4699C128.321 22.9173 128.563 22.2956 128.661 21.6048C128.809 20.539 128.582 19.6953 127.981 19.0736C127.38 18.442 126.577 18.1263 125.573 18.1263H121.804L120.755 25.2314Z" fill="white"/>
<path d="M137.171 36.5107C136.215 36.5107 135.383 36.3282 134.673 35.963C133.974 35.5979 133.456 35.07 133.121 34.3792C132.786 33.6786 132.683 32.8299 132.811 31.8332C133.067 30.1556 133.87 28.8826 135.22 28.0142C136.57 27.1359 138.56 26.682 141.19 26.6524L143.023 26.6228L143.156 25.705C143.264 24.9847 143.126 24.4419 142.742 24.0768C142.368 23.7018 141.806 23.5192 141.057 23.5291C140.456 23.539 139.855 23.6919 139.254 23.988C138.653 24.284 138.195 24.7774 137.88 25.4682H134.348C134.565 24.4123 135.013 23.5242 135.693 22.8038C136.383 22.0834 137.245 21.5407 138.279 21.1755C139.314 20.8005 140.451 20.6131 141.693 20.6131C143.21 20.6131 144.397 20.8154 145.254 21.2199C146.121 21.6245 146.708 22.192 147.013 22.9222C147.328 23.6426 147.417 24.4863 147.279 25.4534L145.683 36.2147H142.121L142.151 33.6243C141.471 34.7295 140.727 35.4894 139.919 35.9038C139.112 36.3084 138.195 36.5107 137.171 36.5107ZM139.018 33.6687C139.392 33.6687 139.762 33.5996 140.126 33.4615C140.501 33.3134 140.846 33.121 141.161 32.8842C141.476 32.6375 141.737 32.3611 141.944 32.0552C142.161 31.7493 142.299 31.4335 142.358 31.1079L142.683 28.8431L141.205 28.8727C140.525 28.8826 139.875 28.9714 139.254 29.1392C138.644 29.2971 138.126 29.5586 137.703 29.9237C137.279 30.2888 137.018 30.7822 136.919 31.4039C136.831 32.1144 136.988 32.672 137.392 33.0766C137.796 33.4713 138.338 33.6687 139.018 33.6687Z" fill="white"/>
<path d="M150.57 41.0994C149.555 41.0994 148.846 41.0106 148.442 40.833C148.048 40.6652 147.851 40.5814 147.851 40.5814L148.25 37.8281L149.728 37.8873C150.585 37.9367 151.235 37.8676 151.679 37.6801C152.122 37.5025 152.432 37.2854 152.61 37.0288C152.797 36.7722 152.93 36.5699 153.009 36.4219L153.408 35.5782L149.787 20.9091H154.014L156.053 30.8859L161.078 20.9091H165.245L156.999 36.3035C156.28 37.6061 155.575 38.6028 154.885 39.2936C154.196 39.9843 153.496 40.458 152.787 40.7146C152.087 40.9712 151.348 41.0994 150.57 41.0994Z" fill="white"/>
<path d="M46.3066 50.133C46.0218 50.133 45.7808 50.0954 45.5836 50.0203C45.3896 49.9452 45.23 49.8497 45.1048 49.7339C44.9796 49.615 44.8826 49.4945 44.8137 49.3725C44.7449 49.2473 44.6948 49.1377 44.6635 49.0438L44.5696 50.0391H43.9077V43.0631H44.7809V45.9549C44.8216 45.8735 44.8826 45.7843 44.964 45.6873C45.0485 45.5903 45.1564 45.4964 45.2879 45.4056C45.4193 45.3149 45.5742 45.2398 45.7526 45.1803C45.9341 45.1208 46.1407 45.0911 46.3723 45.0911C46.9794 45.0911 47.4614 45.3024 47.8182 45.7249C48.1781 46.1474 48.358 46.7702 48.358 47.5933C48.358 48.1034 48.2814 48.5494 48.128 48.9312C47.9747 49.3099 47.7462 49.6056 47.4426 49.8184C47.139 50.0281 46.7604 50.133 46.3066 50.133ZM46.1516 49.4663C46.546 49.4663 46.8668 49.3146 47.114 49.011C47.3612 48.7043 47.4849 48.2176 47.4849 47.551C47.4849 46.9845 47.3691 46.5464 47.1375 46.2366C46.909 45.9236 46.5741 45.7671 46.1329 45.7671C45.8105 45.7671 45.5508 45.8375 45.3536 45.9784C45.1596 46.1161 45.0156 46.3179 44.9217 46.584C44.8309 46.85 44.784 47.1723 44.7809 47.551C44.7809 48.2301 44.8857 48.7199 45.0954 49.0204C45.3082 49.3177 45.6603 49.4663 46.1516 49.4663ZM49.7962 51.5882C49.5114 51.5882 49.3158 51.5679 49.2093 51.5272C49.1029 51.4865 49.0497 51.4662 49.0497 51.4662V50.9028L49.5427 50.9122C49.7242 50.9185 49.8744 50.906 49.9933 50.8747C50.1122 50.8434 50.2077 50.8011 50.2797 50.7479C50.3517 50.6947 50.4064 50.6353 50.444 50.5695C50.4847 50.5038 50.5175 50.4412 50.5426 50.3818L50.7116 49.9217L48.815 45.185H49.6929L51.1247 48.9312L52.5471 45.185H53.3968L51.35 50.4052C51.2248 50.7119 51.084 50.9513 50.9275 51.1235C50.7742 51.2956 50.602 51.4161 50.4111 51.485C50.2233 51.5538 50.0184 51.5882 49.7962 51.5882ZM56.6291 50.0391V43.2509H57.8308L59.8776 48.8561L61.9526 43.2509H63.1496V50.0391H62.253V44.5513L60.286 50.0391H59.4739L57.521 44.6029V50.0391H56.6291ZM66.0819 50.133C65.7689 50.133 65.492 50.0782 65.251 49.9686C65.01 49.856 64.8207 49.6948 64.683 49.4851C64.5484 49.2754 64.4811 49.0219 64.4811 48.7246C64.4811 48.1863 64.6689 47.7857 65.0444 47.5228C65.42 47.26 66.0224 47.1191 66.8518 47.1003L67.7203 47.0769V46.6966C67.7203 46.3993 67.6311 46.1646 67.4527 45.9925C67.2743 45.8172 66.9973 45.7296 66.6218 45.7296C66.3432 45.7327 66.0976 45.7984 65.8847 45.9267C65.6751 46.055 65.5389 46.2647 65.4763 46.5558H64.7111C64.7299 46.2397 64.8191 45.9737 64.9787 45.7577C65.1383 45.5387 65.3605 45.3728 65.6453 45.2601C65.9333 45.1475 66.2728 45.0911 66.664 45.0911C67.0865 45.0911 67.437 45.1506 67.7156 45.2695C67.9972 45.3884 68.2069 45.5637 68.3446 45.7953C68.4855 46.0269 68.5559 46.3117 68.5559 46.6497V50.0391H67.8142L67.7531 49.1283C67.5654 49.507 67.3259 49.7699 67.0349 49.917C66.747 50.061 66.4293 50.133 66.0819 50.133ZM66.3448 49.5086C66.5075 49.5086 66.6687 49.4789 66.8283 49.4194C66.9911 49.3599 67.1397 49.2801 67.2743 49.18C67.4089 49.0767 67.5153 48.9625 67.5935 48.8373C67.6749 48.709 67.7171 48.5775 67.7203 48.443V47.612L66.9973 47.6261C66.628 47.6324 66.3182 47.6699 66.0678 47.7388C65.8206 47.8076 65.6344 47.9156 65.5092 48.0627C65.3871 48.2098 65.3261 48.4023 65.3261 48.6401C65.3261 48.9124 65.42 49.1252 65.6078 49.2786C65.7987 49.4319 66.0444 49.5086 66.3448 49.5086ZM74.3014 50.0391H73.3813L71.8603 47.6026L70.9027 48.5932V50.0391H70.0389V43.0631H70.9027V47.612L73.1842 45.185H74.1794L72.4284 47.0346L74.3014 50.0391ZM75.7381 47.8139C75.7381 48.1206 75.7882 48.3991 75.8883 48.6495C75.9916 48.8967 76.1465 49.0939 76.3531 49.241C76.5627 49.3881 76.8241 49.4616 77.137 49.4616C77.4469 49.4616 77.7129 49.3897 77.9351 49.2457C78.1604 49.1017 78.3044 48.8936 78.367 48.6213H79.1885C79.129 48.95 78.9976 49.2269 78.7942 49.4523C78.5907 49.6776 78.3451 49.8482 78.0571 49.964C77.7692 50.0766 77.4688 50.133 77.1558 50.133C76.702 50.133 76.303 50.0344 75.9587 49.8372C75.6145 49.64 75.3453 49.3568 75.1513 48.9875C74.9572 48.6182 74.8602 48.1754 74.8602 47.659C74.8602 47.1488 74.9479 46.7013 75.1231 46.3164C75.2984 45.9314 75.5519 45.631 75.8836 45.415C76.2185 45.1991 76.6206 45.0911 77.0901 45.0911C77.547 45.0911 77.9335 45.1897 78.2496 45.3869C78.5657 45.584 78.8051 45.8626 78.9679 46.2225C79.1337 46.5793 79.2167 47.0033 79.2167 47.4947V47.8139H75.7381ZM75.7428 47.2271H78.3811C78.3811 46.9486 78.3341 46.6982 78.2402 46.476C78.1463 46.2506 78.0024 46.0738 77.8083 45.9455C77.6174 45.8141 77.3765 45.7483 77.0854 45.7483C76.7818 45.7483 76.5299 45.8219 76.3296 45.969C76.1324 46.1129 75.9838 46.2992 75.8836 46.5276C75.7866 46.753 75.7397 46.9861 75.7428 47.2271ZM88.0144 43.2509L86.0333 50.0391H85.2306L83.7424 44.7766L82.2308 50.0391H81.4515L79.4939 43.2509H80.3718L81.874 48.6542L83.4044 43.2509H84.0851L85.6108 48.6542L87.1412 43.2509H88.0144ZM89.1521 47.8139C89.1521 48.1206 89.2022 48.3991 89.3023 48.6495C89.4056 48.8967 89.5605 49.0939 89.7671 49.241C89.9768 49.3881 90.2381 49.4616 90.551 49.4616C90.8609 49.4616 91.1269 49.3897 91.3491 49.2457C91.5744 49.1017 91.7184 48.8936 91.781 48.6213H92.6025C92.5431 48.95 92.4116 49.2269 92.2082 49.4523C92.0048 49.6776 91.7591 49.8482 91.4712 49.964C91.1832 50.0766 90.8828 50.133 90.5698 50.133C90.116 50.133 89.717 50.0344 89.3727 49.8372C89.0285 49.64 88.7593 49.3568 88.5653 48.9875C88.3713 48.6182 88.2742 48.1754 88.2742 47.659C88.2742 47.1488 88.3619 46.7013 88.5371 46.3164C88.7124 45.9314 88.9659 45.631 89.2976 45.415C89.6325 45.1991 90.0347 45.0911 90.5041 45.0911C90.961 45.0911 91.3475 45.1897 91.6636 45.3869C91.9797 45.584 92.2191 45.8626 92.3819 46.2225C92.5477 46.5793 92.6307 47.0033 92.6307 47.4947V47.8139H89.1521ZM89.1568 47.2271H91.7951C91.7951 46.9486 91.7481 46.6982 91.6542 46.476C91.5603 46.2506 91.4164 46.0738 91.2223 45.9455C91.0314 45.8141 90.7905 45.7483 90.4994 45.7483C90.1958 45.7483 89.9439 45.8219 89.7436 45.969C89.5464 46.1129 89.3978 46.2992 89.2976 46.5276C89.2006 46.753 89.1537 46.9861 89.1568 47.2271ZM96.2217 50.133C95.9369 50.133 95.6959 50.0954 95.4988 50.0203C95.3047 49.9452 95.1451 49.8497 95.0199 49.7339C94.8948 49.615 94.7977 49.4945 94.7289 49.3725C94.66 49.2473 94.61 49.1377 94.5787 49.0438L94.4848 50.0391H93.8229V43.0631H94.696V45.9549C94.7367 45.8735 94.7977 45.7843 94.8791 45.6873C94.9636 45.5903 95.0716 45.4964 95.203 45.4056C95.3345 45.3149 95.4894 45.2398 95.6678 45.1803C95.8493 45.1208 96.0558 45.0911 96.2874 45.0911C96.8946 45.0911 97.3765 45.3024 97.7333 45.7249C98.0932 46.1474 98.2732 46.7702 98.2732 47.5933C98.2732 48.1034 98.1965 48.5494 98.0432 48.9312C97.8898 49.3099 97.6613 49.6056 97.3578 49.8184C97.0542 50.0281 96.6755 50.133 96.2217 50.133ZM96.0668 49.4663C96.4611 49.4663 96.7819 49.3146 97.0292 49.011C97.2764 48.7043 97.4 48.2176 97.4 47.551C97.4 46.9845 97.2842 46.5464 97.0526 46.2366C96.8242 45.9236 96.4893 45.7671 96.048 45.7671C95.7257 45.7671 95.4659 45.8375 95.2687 45.9784C95.0747 46.1161 94.9307 46.3179 94.8369 46.584C94.7461 46.85 94.6991 47.1723 94.696 47.551C94.696 48.2301 94.8009 48.7199 95.0105 49.0204C95.2234 49.3177 95.5754 49.4663 96.0668 49.4663ZM99.6401 50.0391V43.2509H101.823C102.649 43.2509 103.274 43.4027 103.696 43.7063C104.122 44.0098 104.335 44.448 104.335 45.0207C104.335 45.3806 104.241 45.6889 104.053 45.9455C103.868 46.2021 103.543 46.4134 103.076 46.5793C103.342 46.6356 103.566 46.717 103.748 46.8234C103.932 46.9298 104.079 47.055 104.189 47.1989C104.302 47.3398 104.381 47.4962 104.428 47.6684C104.478 47.8405 104.504 48.022 104.504 48.2129C104.504 48.8263 104.284 49.2848 103.846 49.5884C103.411 49.8888 102.76 50.0391 101.893 50.0391H99.6401ZM100.509 49.3161H101.884C102.45 49.3161 102.881 49.2238 103.175 49.0391C103.472 48.8514 103.621 48.5634 103.621 48.1754C103.621 47.8906 103.547 47.6605 103.4 47.4853C103.256 47.3069 103.061 47.177 102.814 47.0956C102.566 47.0143 102.291 46.9736 101.987 46.9736H100.509V49.3161ZM100.509 46.2366H101.987C102.166 46.2366 102.343 46.2193 102.518 46.1849C102.693 46.1505 102.854 46.091 103.001 46.0065C103.148 45.922 103.267 45.8094 103.358 45.6685C103.449 45.5246 103.494 45.3446 103.494 45.1287C103.494 44.7343 103.342 44.4433 103.039 44.2555C102.738 44.0646 102.347 43.9691 101.865 43.9691H100.509V46.2366ZM106.417 47.8139C106.417 48.1206 106.467 48.3991 106.567 48.6495C106.671 48.8967 106.825 49.0939 107.032 49.241C107.242 49.3881 107.503 49.4616 107.816 49.4616C108.126 49.4616 108.392 49.3897 108.614 49.2457C108.839 49.1017 108.983 48.8936 109.046 48.6213H109.867C109.808 48.95 109.677 49.2269 109.473 49.4523C109.27 49.6776 109.024 49.8482 108.736 49.964C108.448 50.0766 108.148 50.133 107.835 50.133C107.381 50.133 106.982 50.0344 106.638 49.8372C106.293 49.64 106.024 49.3568 105.83 48.9875C105.636 48.6182 105.539 48.1754 105.539 47.659C105.539 47.1488 105.627 46.7013 105.802 46.3164C105.977 45.9314 106.231 45.631 106.563 45.415C106.897 45.1991 107.3 45.0911 107.769 45.0911C108.226 45.0911 108.612 45.1897 108.929 45.3869C109.245 45.584 109.484 45.8626 109.647 46.2225C109.813 46.5793 109.896 47.0033 109.896 47.4947V47.8139H106.417ZM106.422 47.2271H109.06C109.06 46.9486 109.013 46.6982 108.919 46.476C108.825 46.2506 108.681 46.0738 108.487 45.9455C108.296 45.8141 108.055 45.7483 107.764 45.7483C107.461 45.7483 107.209 45.8219 107.009 45.969C106.811 46.1129 106.663 46.2992 106.563 46.5276C106.466 46.753 106.419 46.9861 106.422 47.2271ZM113.398 45.8188H112.304V48.8373C112.304 49.0094 112.321 49.1362 112.356 49.2175C112.393 49.2958 112.454 49.3458 112.539 49.3678C112.627 49.3897 112.745 49.4006 112.896 49.4006H113.426V49.9827C113.367 50.0046 113.276 50.0234 113.154 50.0391C113.035 50.0547 112.886 50.0625 112.708 50.0625C112.373 50.0625 112.113 50.0172 111.929 49.9264C111.744 49.8356 111.614 49.7011 111.539 49.5227C111.467 49.3443 111.431 49.1252 111.431 48.8655V45.8188H110.642V45.185H111.455L111.666 43.772H112.304V45.1803H113.398V45.8188ZM117.056 45.8188H115.963V48.8373C115.963 49.0094 115.98 49.1362 116.014 49.2175C116.052 49.2958 116.113 49.3458 116.197 49.3678C116.285 49.3897 116.404 49.4006 116.554 49.4006H117.085V49.9827C117.025 50.0046 116.934 50.0234 116.812 50.0391C116.693 50.0547 116.545 50.0625 116.366 50.0625C116.031 50.0625 115.772 50.0172 115.587 49.9264C115.402 49.8356 115.273 49.7011 115.197 49.5227C115.125 49.3443 115.089 49.1252 115.089 48.8655V45.8188H114.301V45.185H115.113L115.324 43.772H115.963V45.1803H117.056V45.8188ZM118.795 47.8139C118.795 48.1206 118.845 48.3991 118.945 48.6495C119.048 48.8967 119.203 49.0939 119.41 49.241C119.62 49.3881 119.881 49.4616 120.194 49.4616C120.504 49.4616 120.77 49.3897 120.992 49.2457C121.217 49.1017 121.361 48.8936 121.424 48.6213H122.245C122.186 48.95 122.054 49.2269 121.851 49.4523C121.648 49.6776 121.402 49.8482 121.114 49.964C120.826 50.0766 120.526 50.133 120.213 50.133C119.759 50.133 119.36 50.0344 119.016 49.8372C118.671 49.64 118.402 49.3568 118.208 48.9875C118.014 48.6182 117.917 48.1754 117.917 47.659C117.917 47.1488 118.005 46.7013 118.18 46.3164C118.355 45.9314 118.609 45.631 118.94 45.415C119.275 45.1991 119.678 45.0911 120.147 45.0911C120.604 45.0911 120.99 45.1897 121.306 45.3869C121.623 45.584 121.862 45.8626 122.025 46.2225C122.191 46.5793 122.274 47.0033 122.274 47.4947V47.8139H118.795ZM118.8 47.2271H121.438C121.438 46.9486 121.391 46.6982 121.297 46.476C121.203 46.2506 121.059 46.0738 120.865 45.9455C120.674 45.8141 120.433 45.7483 120.142 45.7483C119.839 45.7483 119.587 45.8219 119.386 45.969C119.189 46.1129 119.041 46.2992 118.94 46.5276C118.843 46.753 118.797 46.9861 118.8 47.2271ZM123.466 50.0391V45.185H124.292V46.1192C124.373 45.8876 124.488 45.6967 124.635 45.5465C124.782 45.3931 124.949 45.2789 125.137 45.2038C125.328 45.1287 125.525 45.0911 125.728 45.0911C125.8 45.0911 125.871 45.0958 125.94 45.1052C126.009 45.1146 126.062 45.1302 126.099 45.1521V45.9925C126.052 45.9705 125.991 45.9565 125.916 45.9502C125.844 45.9408 125.783 45.9361 125.733 45.9361C125.539 45.9236 125.358 45.9361 125.189 45.9737C125.02 46.0081 124.871 46.0691 124.743 46.1568C124.614 46.2444 124.513 46.3602 124.437 46.5041C124.365 46.645 124.329 46.8171 124.329 47.0205V50.0391H123.466Z" fill="#D7D7D7"/>
</svg>
