<svg width="25" height="25" viewBox="0 0 25 25" fill="none" xmlns="http://www.w3.org/2000/svg">
<g clip-path="url(#clip0_369_7132)">
<path d="M17.2226 21.5603V19.5391C17.2226 18.467 16.7967 17.4388 16.0386 16.6807C15.2805 15.9226 14.2523 15.4967 13.1802 15.4967H5.0955C4.02339 15.4967 2.9952 15.9226 2.23711 16.6807C1.47902 17.4388 1.05313 18.467 1.05313 19.5391V21.5603M23.2861 21.5603V19.5391C23.2855 18.6434 22.9874 17.7734 22.4386 17.0655C21.8899 16.3576 21.1216 15.852 20.2544 15.6281M16.212 3.50101C17.0815 3.72364 17.8522 4.22934 18.4026 4.93838C18.953 5.64742 19.2517 6.51947 19.2517 7.41705C19.2517 8.31462 18.953 9.18667 18.4026 9.89571C17.8522 10.6048 17.0815 11.1105 16.212 11.3331M13.1802 7.41199C13.1802 9.64453 11.3704 11.4544 9.13786 11.4544C6.90532 11.4544 5.0955 9.64453 5.0955 7.41199C5.0955 5.17946 6.90532 3.36963 9.13786 3.36963C11.3704 3.36963 13.1802 5.17946 13.1802 7.41199Z" stroke="#7936F4" stroke-width="2.02118" stroke-linecap="round" stroke-linejoin="round"/>
</g>
<defs>
<clipPath id="clip0_369_7132">
<rect width="24.2542" height="24.2542" fill="white" transform="translate(0.0423889 0.337891)"/>
</clipPath>
</defs>
</svg>
